<svg width="185" height="184" viewBox="0 0 185 184" fill="none" xmlns="http://www.w3.org/2000/svg">
<g filter="url(#filter0_d)">
<path d="M35.9998 79.5C27.9998 80.7 25.4998 93.5 25.4998 93.5C25.4998 93.5 24.1616 109.235 27.9998 113.5C32.4998 118.5 40.4998 117.5 40.4998 117.5C40.4998 117.5 67.4568 117.309 71.4998 116.5C76.4998 115.5 78.1437 113.403 81.9998 111.5C87.4728 108.799 89.2513 106.998 95.3012 106.193C115.256 103.534 145 107.5 148 99.4999C149.57 95.3125 149.879 80.6818 151 79C152 77.5 158.301 80.3878 158.301 74.1925C158.301 69.9205 160.5 64.8874 155.5 63.3874C150.5 61.8874 102.301 65.1925 88.3012 65.6925C74.3012 66.1925 72.9998 72 66.9998 74.5C60.9998 77 45.9998 78 35.9998 79.5Z" fill="white"/>
</g>
<path d="M41.0601 112.38C37.2833 112.653 34.6132 111.964 33.05 110.312C31.9774 109.16 31.3641 107.52 31.2102 105.392C31.139 104.408 31.1675 103.323 31.2956 102.138L32.1147 94.0574C32.8491 86.839 36.9532 82.9594 44.427 82.4187C47.5123 82.1955 49.9009 82.6911 51.593 83.9055C53.2831 85.0933 54.2109 86.8309 54.3763 89.1183C54.4437 90.0492 54.379 91.003 54.1823 91.9797C54.0122 92.9546 53.8248 93.69 53.62 94.1861L53.273 94.933L46.2115 95.4439C46.8337 94.4364 47.0996 93.3076 47.0092 92.0575C46.836 89.6638 45.7521 88.5391 43.7573 88.6834C41.071 88.8777 39.5744 90.55 39.2676 93.7004L38.4653 101.459C38.3842 102.186 38.3687 102.896 38.4188 103.587C38.5515 105.423 39.6951 106.262 41.8495 106.106C44.0304 105.949 45.3479 104.757 45.8018 102.532L42.5304 102.769L43.0079 98.2825L53.5803 97.5176L53.1902 100.995L53.0744 102.166C52.4057 108.444 48.4009 111.849 41.0601 112.38Z" fill="#6886C5"/>
<path d="M80.7895 90.2572L79.7955 90.1474L79.7946 90.1563L80.7895 90.2572ZM79.9704 98.3373L78.9755 98.2365L78.9753 98.2387L79.9704 98.3373ZM76.4158 106.856L77.1115 107.574L77.1115 107.574L76.4158 106.856ZM59.3803 108.088L58.6662 108.788L58.6674 108.79L59.3803 108.088ZM57.549 99.9594L58.5428 100.071L58.5439 100.06L57.549 99.9594ZM58.3681 91.8792L57.3732 91.778L57.3732 91.7784L58.3681 91.8792ZM71.3791 102.648L70.6713 101.942L70.6713 101.942L71.3791 102.648ZM72.7776 98.6973L71.7829 98.5944L71.7824 98.5999L72.7776 98.6973ZM73.5799 90.9392L74.5746 91.042L74.576 91.0289L74.577 91.0158L73.5799 90.9392ZM70.0905 86.4994L70.0183 85.502L70.0086 85.5027L69.999 85.5036L70.0905 86.4994ZM65.521 91.5222L66.5157 91.625L66.516 91.622L65.521 91.5222ZM64.7187 99.2803L63.724 99.1774L63.7231 99.1857L63.7224 99.194L64.7187 99.2803ZM70.7526 81.2379C73.8471 81.014 76.0289 81.496 77.4583 82.5016C78.847 83.4785 79.6923 85.0695 79.8665 87.4765L81.8613 87.3322C81.6563 84.4996 80.6149 82.2768 78.6091 80.8658C76.6441 79.4834 73.9236 79.0032 70.6083 79.2431L70.7526 81.2379ZM79.8665 87.4765C79.9249 88.2844 79.903 89.1737 79.7956 90.1474L81.7835 90.3669C81.9021 89.2923 81.9298 88.2798 81.8613 87.3322L79.8665 87.4765ZM79.7946 90.1563L78.9755 98.2365L80.9653 98.4382L81.7844 90.358L79.7946 90.1563ZM78.9753 98.2387C78.6195 101.83 77.4973 104.416 75.7201 106.138L77.1115 107.574C79.332 105.424 80.5796 102.331 80.9655 98.4359L78.9753 98.2387ZM75.7201 106.138C73.9453 107.857 71.2734 108.912 67.5605 109.181L67.7048 111.176C71.7051 110.886 74.8887 109.727 77.1115 107.574L75.7201 106.138ZM67.5605 109.181C63.8115 109.452 61.4309 108.747 60.0932 107.387L58.6674 108.79C60.6197 110.774 63.7406 111.463 67.7048 111.176L67.5605 109.181ZM60.0944 107.388C59.1839 106.46 58.5999 105.062 58.4552 103.062L56.4605 103.206C56.6275 105.515 57.3252 107.42 58.6662 108.788L60.0944 107.388ZM58.4552 103.062C58.3912 102.177 58.4182 101.181 58.5428 100.071L56.5552 99.8479C56.4198 101.055 56.3859 102.176 56.4605 103.206L58.4552 103.062ZM58.5439 100.06L59.363 91.9801L57.3732 91.7784L56.5541 99.8585L58.5439 100.06ZM59.363 91.9804C59.713 88.5403 60.8511 86.0149 62.6839 84.2824C64.5205 82.5462 67.1701 81.497 70.7526 81.2379L70.6083 79.2431C66.7169 79.5246 63.5775 80.6855 61.31 82.829C59.0388 84.976 57.7576 87.9997 57.3732 91.778L59.363 91.9804ZM68.3346 104.914C69.8402 104.805 71.1284 104.315 72.0868 103.355L70.6713 101.942C70.134 102.48 69.3444 102.836 68.1903 102.919L68.3346 104.914ZM72.0868 103.355C73.0846 102.355 73.5817 100.748 73.7729 98.7947L71.7824 98.5999C71.6046 100.416 71.1694 101.443 70.6713 101.942L72.0868 103.355ZM73.7723 98.8001L74.5746 91.042L72.5852 90.8363L71.7829 98.5944L73.7723 98.8001ZM74.577 91.0158C74.6212 90.4408 74.6283 89.9081 74.5931 89.4221L72.5983 89.5664C72.6247 89.9315 72.6213 90.3621 72.5829 90.8626L74.577 91.0158ZM74.5931 89.4221C74.5038 88.1881 74.1103 87.1027 73.2521 86.3695C72.3964 85.6383 71.2595 85.4122 70.0183 85.502L70.1626 87.4968C71.1024 87.4288 71.6403 87.6229 71.9529 87.89C72.2632 88.1551 72.5317 88.6461 72.5983 89.5664L74.5931 89.4221ZM69.999 85.5036C68.4383 85.647 67.1207 86.211 66.1567 87.2707C65.2053 88.3164 64.6949 89.7389 64.526 91.4224L66.516 91.622C66.6578 90.2083 67.0642 89.2451 67.6361 88.6165C68.1952 88.002 69.007 87.6031 70.182 87.4952L69.999 85.5036ZM64.5263 91.4193L63.724 99.1774L65.7134 99.3832L66.5157 91.625L64.5263 91.4193ZM63.7224 99.194C63.6593 99.9226 63.6563 100.671 63.7118 101.439L65.7066 101.294C65.6582 100.625 65.6615 99.9832 65.715 99.3666L63.7224 99.194ZM63.7118 101.439C63.7941 102.576 64.2176 103.568 65.1154 104.213C65.9764 104.831 67.1036 105.003 68.3346 104.914L68.1903 102.919C67.1872 102.992 66.6051 102.82 66.2816 102.588C65.995 102.382 65.759 102.019 65.7066 101.294L63.7118 101.439Z" fill="#6886C5"/>
<path d="M97.1279 81.7616L96.1339 81.6518L96.133 81.6607L97.1279 81.7616ZM96.3088 89.8417L95.3139 89.7409L95.3137 89.7431L96.3088 89.8417ZM92.7542 98.3604L93.4499 99.0787L93.4499 99.0787L92.7542 98.3604ZM75.7187 99.5928L75.0046 100.293L75.0058 100.294L75.7187 99.5928ZM73.8874 91.4638L74.8812 91.5753L74.8823 91.5646L73.8874 91.4638ZM74.7065 83.3836L73.7116 83.2824L73.7116 83.2828L74.7065 83.3836ZM87.7175 94.1529L87.0097 93.4464L87.0097 93.4464L87.7175 94.1529ZM89.116 90.2017L88.1213 90.0988L88.1208 90.1043L89.116 90.2017ZM89.9183 82.4436L90.913 82.5464L90.9144 82.5333L90.9154 82.5201L89.9183 82.4436ZM86.4289 78.0038L86.3567 77.0064L86.347 77.0071L86.3374 77.008L86.4289 78.0038ZM81.8594 83.0266L82.8541 83.1294L82.8544 83.1264L81.8594 83.0266ZM81.0571 90.7847L80.0624 90.6818L80.0615 90.6901L80.0608 90.6983L81.0571 90.7847ZM87.0909 72.7423C90.1855 72.5184 92.3673 73.0004 93.7967 74.006C95.1854 74.9829 96.0307 76.5739 96.2049 78.9809L98.1996 78.8366C97.9947 76.004 96.9532 73.7812 94.9475 72.3702C92.9824 70.9878 90.262 70.5076 86.9466 70.7475L87.0909 72.7423ZM96.2049 78.9809C96.2633 79.7888 96.2414 80.6781 96.1339 81.6518L98.1219 81.8713C98.2405 80.7967 98.2682 79.7841 98.1996 78.8366L96.2049 78.9809ZM96.133 81.6607L95.3139 89.7409L97.3037 89.9426L98.1228 81.8624L96.133 81.6607ZM95.3137 89.7431C94.9579 93.334 93.8357 95.9208 92.0585 97.6421L93.4499 99.0787C95.6704 96.9281 96.9179 93.8359 97.3039 89.9403L95.3137 89.7431ZM92.0585 97.6421C90.2836 99.3611 87.6118 100.417 83.8989 100.685L84.0432 102.68C88.0434 102.391 91.227 101.232 93.4499 99.0787L92.0585 97.6421ZM83.8989 100.685C80.1499 100.957 77.7693 100.252 76.4316 98.8916L75.0058 100.294C76.958 102.279 80.079 102.967 84.0432 102.68L83.8989 100.685ZM76.4328 98.8928C75.5223 97.9639 74.9383 96.5662 74.7936 94.5665L72.7988 94.7108C72.9659 97.0198 73.6636 98.9249 75.0046 100.293L76.4328 98.8928ZM74.7936 94.5665C74.7296 93.6815 74.7565 92.6859 74.8811 91.5753L72.8936 91.3523C72.7581 92.5598 72.7243 93.6807 72.7988 94.7108L74.7936 94.5665ZM74.8823 91.5646L75.7014 83.4845L73.7116 83.2828L72.8925 91.3629L74.8823 91.5646ZM75.7014 83.4848C76.0514 80.0447 77.1895 77.5193 79.0223 75.7868C80.8589 74.0506 83.5085 73.0014 87.0909 72.7423L86.9466 70.7475C83.0553 71.029 79.9159 72.1899 77.6484 74.3334C75.3771 76.4804 74.096 79.5041 73.7116 83.2824L75.7014 83.4848ZM84.673 96.4185C86.1786 96.3095 87.4668 95.8195 88.4252 94.8593L87.0097 93.4464C86.4724 93.9848 85.6828 94.3402 84.5287 94.4237L84.673 96.4185ZM88.4252 94.8593C89.423 93.8598 89.9201 92.2522 90.1113 90.2991L88.1208 90.1043C87.943 91.9209 87.5077 92.9475 87.0097 93.4464L88.4252 94.8593ZM90.1107 90.3045L90.913 82.5464L88.9236 82.3407L88.1213 90.0988L90.1107 90.3045ZM90.9154 82.5201C90.9595 81.9452 90.9666 81.4125 90.9315 80.9265L88.9367 81.0708C88.9631 81.4359 88.9597 81.8665 88.9212 82.367L90.9154 82.5201ZM90.9315 80.9265C90.8422 79.6924 90.4486 78.6071 89.5905 77.8739C88.7347 77.1427 87.5979 76.9166 86.3567 77.0064L86.501 79.0012C87.4408 78.9332 87.9786 79.1273 88.2913 79.3944C88.6016 79.6595 88.8701 80.1505 88.9367 81.0708L90.9315 80.9265ZM86.3374 77.008C84.7767 77.1514 83.4591 77.7154 82.495 78.7751C81.5437 79.8208 81.0332 81.2433 80.8644 82.9268L82.8544 83.1264C82.9962 81.7127 83.4026 80.7495 83.9744 80.1209C84.5336 79.5064 85.3454 79.1075 86.5204 78.9996L86.3374 77.008ZM80.8647 82.9237L80.0624 90.6818L82.0518 90.8875L82.8541 83.1294L80.8647 82.9237ZM80.0608 90.6983C79.9977 91.427 79.9947 92.1755 80.0502 92.943L82.045 92.7986C81.9966 92.1298 81.9999 91.4876 82.0533 90.871L80.0608 90.6983ZM80.0502 92.943C80.1325 94.0803 80.556 95.0727 81.4538 95.7171C82.3148 96.335 83.442 96.5075 84.673 96.4185L84.5287 94.4237C83.5256 94.4962 82.9435 94.3245 82.62 94.0923C82.3334 93.8866 82.0974 93.5232 82.045 92.7986L80.0502 92.943Z" fill="#FFACB7"/>
<path d="M120.296 96.6142C118.322 98.5216 115.406 99.6148 111.55 99.8938C107.693 100.173 104.956 99.4752 103.337 97.801C102.185 96.6545 101.531 95.004 101.375 92.8496C101.306 91.8922 101.336 90.8339 101.466 89.6748L103.367 71.0491L110.548 70.5296L108.636 88.9957C108.577 89.6683 108.574 90.3637 108.626 91.0818C108.761 92.9436 109.945 93.7937 112.18 93.6321C113.509 93.5359 114.548 93.1131 115.296 92.3639C116.044 91.6146 116.51 90.2976 116.695 88.4127L118.607 69.9465L125.789 69.427L123.887 88.0527C123.492 91.8245 122.295 94.6783 120.296 96.6142ZM155.06 73.5658L145.245 74.2758L142.923 97.0627L135.702 97.5851L138.024 74.7982L128.17 75.5111L128.837 69.2065L155.727 67.2612L155.06 73.5658Z" fill="#FFACB7"/>
<defs>
<filter id="filter0_d" x="21.2739" y="63" width="141.509" height="62.5816" filterUnits="userSpaceOnUse" color-interpolation-filters="sRGB">
<feFlood flood-opacity="0" result="BackgroundImageFix"/>
<feColorMatrix in="SourceAlpha" type="matrix" values="0 0 0 0 0 0 0 0 0 0 0 0 0 0 0 0 0 0 127 0" result="hardAlpha"/>
<feOffset dy="4"/>
<feGaussianBlur stdDeviation="2"/>
<feColorMatrix type="matrix" values="0 0 0 0 0.772934 0 0 0 0 0.807203 0 0 0 0 0.879167 0 0 0 1 0"/>
<feBlend mode="normal" in2="BackgroundImageFix" result="effect1_dropShadow"/>
<feBlend mode="normal" in="SourceGraphic" in2="effect1_dropShadow" result="shape"/>
</filter>
</defs>
</svg>
