<svg width="26" height="26" viewBox="0 0 26 26" fill="none" xmlns="http://www.w3.org/2000/svg">
<g id="people">
<path id="Stroke 1 Copy" d="M1.08325 19.5C1.08325 17.0625 4.33325 17.0625 5.95825 15.4375C6.77075 14.625 4.33325 14.625 4.33325 10.5625C4.33325 7.85444 5.41631 6.5 7.58325 6.5C9.75019 6.5 10.8333 7.85444 10.8333 10.5625C10.8333 14.625 8.39575 14.625 9.20825 15.4375C10.8333 17.0625 14.0833 17.0625 14.0833 19.5" stroke="#6886C5" stroke-width="1.5" stroke-linecap="round"/>
<path id="Stroke 1 Copy 2" d="M12.9944 17.5967C13.6086 17.1734 14.406 16.8686 15.169 16.5011C15.7656 16.2138 16.3412 15.8881 16.7918 15.4375C17.6043 14.625 15.1668 14.625 15.1668 10.5625C15.1668 7.85444 16.2498 6.5 18.4168 6.5C20.5837 6.5 21.6668 7.85444 21.6668 10.5625C21.6668 14.625 19.2293 14.625 20.0418 15.4375C21.6668 17.0625 24.9168 17.0625 24.9168 19.5" stroke="#6886C5" stroke-width="1.5" stroke-linecap="round"/>
</g>
</svg>
