<svg width="293" height="196" viewBox="0 0 293 196" fill="none" xmlns="http://www.w3.org/2000/svg">
<path opacity="0.1" d="M56.0845 196C73.0714 196 86.842 192.509 86.842 188.203C86.842 183.897 73.0714 180.406 56.0845 180.406C39.0975 180.406 25.3269 183.897 25.3269 188.203C25.3269 192.509 39.0975 196 56.0845 196Z" fill="#F28594"/>
<g opacity="0.2">
<path opacity="0.2" d="M252.781 182.764C252.657 183 252.512 183.225 252.347 183.435C250.902 182.414 249.432 181.413 247.938 180.434C247.968 180.371 248.001 180.305 248.036 180.243C248.383 179.571 248.903 179.004 249.542 178.602C250.367 178.099 251.298 177.978 252.051 178.386C252.804 178.793 253.246 179.629 253.291 180.595C253.317 181.35 253.141 182.099 252.781 182.764Z" fill="#3F3D56"/>
<path opacity="0.2" d="M254.802 178.974C255.71 177.254 255.385 175.295 254.074 174.599C252.764 173.903 250.965 174.734 250.056 176.454C249.147 178.174 249.472 180.133 250.783 180.829C252.093 181.525 253.893 180.695 254.802 178.974Z" fill="#3F3D56"/>
<path opacity="0.2" d="M256.812 175.166C257.721 173.446 257.395 171.487 256.085 170.791C254.774 170.096 252.975 170.926 252.066 172.646C251.157 174.366 251.483 176.325 252.793 177.021C254.104 177.717 255.903 176.887 256.812 175.166Z" fill="#3F3D56"/>
<path opacity="0.2" d="M258.825 171.358C259.734 169.637 259.409 167.679 258.098 166.983C256.788 166.287 254.989 167.117 254.08 168.837C253.171 170.558 253.496 172.516 254.807 173.212C256.117 173.908 257.917 173.078 258.825 171.358Z" fill="#3F3D56"/>
<path opacity="0.2" d="M260.839 167.547C261.748 165.827 261.423 163.868 260.112 163.172C258.802 162.476 257.002 163.307 256.094 165.027C255.185 166.747 255.51 168.706 256.821 169.402C258.131 170.098 259.93 169.268 260.839 167.547Z" fill="#3F3D56"/>
<path opacity="0.2" d="M263.335 135.486C263.23 134.905 263.164 134.316 263.139 133.725L269.915 136.01L263.139 132.487C263.238 130.727 263.695 129.006 264.481 127.429C265.268 125.853 266.368 124.454 267.714 123.319L274.279 132.835L269.182 122.25C270.68 121.312 272.354 120.693 274.1 120.432C275.847 120.171 277.628 120.273 279.334 120.731C281.039 121.19 282.632 121.995 284.014 123.098C285.396 124.2 286.536 125.576 287.365 127.139C288.193 128.703 288.692 130.42 288.83 132.185C288.967 133.95 288.742 135.725 288.166 137.398C287.59 139.072 286.677 140.609 285.484 141.913C284.29 143.218 282.842 144.262 281.228 144.982C281.394 145.894 281.461 146.822 281.429 147.749L271.102 147.669L281.271 149.347C280.927 151.465 280.063 153.464 278.755 155.163C277.448 156.862 275.739 158.208 273.782 159.079C274.214 161.461 273.968 163.917 273.072 166.166C272.177 168.415 270.669 170.366 268.72 171.796C266.77 173.226 264.459 174.077 262.05 174.252C259.641 174.427 257.232 173.919 255.097 172.786C252.963 171.652 251.19 169.94 249.98 167.844C248.771 165.748 248.174 163.353 248.259 160.933C248.343 158.513 249.105 156.166 250.457 154.16C251.81 152.154 253.698 150.569 255.906 149.588C255.393 146.743 255.849 143.808 257.199 141.253C258.549 138.698 260.716 136.672 263.352 135.499L263.335 135.486Z" fill="#F28594"/>
<path opacity="0.1" d="M279.92 153.322C278.574 155.882 276.405 157.911 273.764 159.079C274.196 161.461 273.95 163.917 273.055 166.166C272.159 168.415 270.651 170.366 268.702 171.796C266.753 173.226 264.441 174.077 262.032 174.252C259.623 174.427 257.214 173.919 255.08 172.786C252.945 171.653 251.172 169.94 249.962 167.844C248.753 165.748 248.156 163.353 248.241 160.933C248.325 158.513 249.087 156.166 250.439 154.16C251.792 152.154 253.68 150.569 255.888 149.588C255.389 146.839 280.598 152.044 279.92 153.322Z" fill="black"/>
</g>
<g opacity="0.2">
<path opacity="0.2" d="M244.718 106.664C244.562 107.068 244.373 107.458 244.153 107.831C241.624 106.476 239.063 105.162 236.471 103.891C236.507 103.783 236.547 103.67 236.589 103.561C237.01 102.415 237.729 101.402 238.672 100.628C239.895 99.6467 241.368 99.2768 242.688 99.7775C244.008 100.278 244.851 101.539 245.115 103.076C245.305 104.286 245.168 105.525 244.718 106.664Z" fill="#3F3D56"/>
<path opacity="0.2" d="M247.199 100.151C248.318 97.2048 247.405 94.1217 245.16 93.265C242.915 92.4083 240.189 94.1025 239.07 97.0491C237.951 99.9956 238.864 103.079 241.109 103.935C243.353 104.792 246.08 103.098 247.199 100.151Z" fill="#3F3D56"/>
<path opacity="0.2" d="M249.677 93.6319C250.795 90.6853 249.883 87.6022 247.638 86.7455C245.393 85.8888 242.666 87.583 241.548 90.5295C240.429 93.4761 241.342 96.5592 243.586 97.4159C245.831 98.2726 248.558 96.5784 249.677 93.6319Z" fill="#3F3D56"/>
<path opacity="0.2" d="M252.151 87.1089C253.269 84.1623 252.357 81.0792 250.112 80.2225C247.867 79.3659 245.14 81.06 244.021 84.0066C242.903 86.9531 243.815 90.0363 246.06 90.893C248.305 91.7496 251.032 90.0555 252.151 87.1089Z" fill="#3F3D56"/>
<path opacity="0.2" d="M254.628 80.5921C255.747 77.6455 254.834 74.5624 252.589 73.7057C250.345 72.849 247.618 74.5432 246.499 77.4897C245.38 80.4363 246.293 83.5194 248.538 84.3761C250.783 85.2328 253.509 83.5386 254.628 80.5921Z" fill="#3F3D56"/>
<path opacity="0.2" d="M252.277 28.6062C251.991 27.6851 251.769 26.7452 251.612 25.7934L262.961 28.1106L251.376 23.7781C251.186 20.9398 251.576 18.0925 252.521 15.4103C253.467 12.7282 254.948 10.2676 256.875 8.17924L269.312 22.1503L259.023 6.16648C261.244 4.36855 263.809 3.04734 266.56 2.28483C269.311 1.52232 272.189 1.33479 275.016 1.73388C277.842 2.13297 280.556 3.11016 282.99 4.6048C285.424 6.09945 287.526 8.07966 289.165 10.4225C290.803 12.7654 291.944 15.4209 292.517 18.2243C293.089 21.0277 293.081 23.9191 292.492 26.7191C291.904 29.5191 290.747 32.1679 289.095 34.5012C287.442 36.8344 285.329 38.8023 282.887 40.2828C283.332 41.7159 283.624 43.1928 283.755 44.6882L267.149 46.6204L283.82 47.2872C283.69 50.7591 282.698 54.1438 280.935 57.1349C279.172 60.1261 276.693 62.6293 273.722 64.4183C274.885 68.1584 274.976 72.1514 273.983 75.9408C272.991 79.7302 270.955 83.1632 268.108 85.8475C265.261 88.5317 261.719 90.359 257.885 91.1205C254.052 91.882 250.082 91.547 246.43 90.1537C242.777 88.7604 239.589 86.3651 237.23 83.2414C234.871 80.1178 233.436 76.3919 233.09 72.4894C232.743 68.587 233.498 64.6655 235.269 61.173C237.04 57.6805 239.755 54.7579 243.105 52.7392C241.711 48.2686 241.857 43.4581 243.519 39.0808C245.182 34.7035 248.263 31.0134 252.27 28.6037L252.277 28.6062Z" fill="#F28594"/>
<path opacity="0.1" d="M282.467 53.942C280.813 58.3238 277.73 62.0166 273.719 64.4209C274.882 68.1611 274.973 72.154 273.98 75.9434C272.988 79.7328 270.952 83.1658 268.105 85.8501C265.258 88.5344 261.716 90.3617 257.882 91.1232C254.049 91.8846 250.079 91.5496 246.427 90.1563C242.774 88.763 239.586 86.3677 237.227 83.2441C234.868 80.1205 233.433 76.3945 233.087 72.4921C232.74 68.5896 233.495 64.6681 235.266 61.1756C237.037 57.6831 239.752 54.7605 243.102 52.7418C241.764 48.4345 283.3 51.7531 282.467 53.942Z" fill="black"/>
</g>
<g opacity="0.2">
<path opacity="0.2" d="M44.7661 128.354C44.8931 128.853 45.061 129.341 45.268 129.813C48.4468 128.592 51.6616 127.418 54.9124 126.291C54.8848 126.157 54.8572 126.019 54.822 125.883C54.4947 124.467 53.7954 123.164 52.7968 122.109C51.4968 120.771 49.8129 120.116 48.1942 120.514C46.5755 120.912 45.3835 122.275 44.8439 124.036C44.4324 125.442 44.4056 126.934 44.7661 128.354Z" fill="#3F3D56"/>
<path opacity="0.2" d="M49.4447 125.653C52.2198 124.974 53.7504 121.471 52.8635 117.829C51.9766 114.187 49.008 111.785 46.2329 112.464C43.4579 113.143 41.9272 116.646 42.8142 120.288C43.7011 123.93 46.6697 126.332 49.4447 125.653Z" fill="#3F3D56"/>
<path opacity="0.2" d="M47.4816 117.594C50.2567 116.915 51.7873 113.412 50.9004 109.77C50.0135 106.128 47.0449 103.726 44.2698 104.405C41.4947 105.085 39.9641 108.588 40.851 112.23C41.7379 115.872 44.7065 118.273 47.4816 117.594Z" fill="#3F3D56"/>
<path opacity="0.2" d="M45.5231 109.535C48.2982 108.855 49.8288 105.352 48.9419 101.71C48.055 98.0684 45.0864 95.6666 42.3113 96.3458C39.5362 97.0251 38.0056 100.528 38.8925 104.17C39.7794 107.812 42.748 110.214 45.5231 109.535Z" fill="#3F3D56"/>
<path opacity="0.2" d="M43.559 101.473C46.3341 100.794 47.8647 97.291 46.9778 93.649C46.0909 90.0071 43.1223 87.6053 40.3472 88.2846C37.5721 88.9638 36.0415 92.4668 36.9284 96.1087C37.8153 99.7507 40.7839 102.152 43.559 101.473Z" fill="#3F3D56"/>
<path opacity="0.2" d="M47.3269 35.1311C47.8011 34.0869 48.202 33.0108 48.5265 31.9106L34.7965 32.9673L49.1012 29.5809C49.7447 26.2583 49.7047 22.8389 48.9836 19.5324C48.2625 16.2258 46.8755 13.1017 44.9077 10.3515L28.1737 24.9993L42.6716 7.6594C40.3173 5.20151 37.4836 3.2556 34.347 1.94273C31.2103 0.629859 27.8377 -0.0218797 24.439 0.028058C21.0403 0.0779957 17.6882 0.828541 14.5912 2.233C11.4943 3.63746 8.71875 5.66579 6.43728 8.1918C4.15581 10.7178 2.41722 13.6875 1.32967 16.916C0.24213 20.1446 -0.171102 23.5629 0.115685 26.9584C0.402473 30.354 1.38315 33.654 2.99669 36.6532C4.61024 39.6525 6.82214 42.2868 9.49479 44.3923C8.75762 46.0181 8.19645 47.7186 7.82089 49.4644L27.1322 54.1969L7.36163 52.5188C7.00531 56.6342 7.67755 60.7738 9.3176 64.5635C10.9576 68.3531 13.5138 71.6732 16.755 74.2239C14.8301 78.4659 14.1345 83.1654 14.7479 87.785C15.3613 92.4047 17.2589 96.7581 20.2237 100.348C23.1886 103.937 27.1011 106.618 31.5139 108.083C35.9267 109.549 40.6618 109.74 45.1778 108.635C49.6938 107.529 53.8086 105.173 57.0516 101.834C60.2947 98.4947 62.5351 94.3083 63.5169 89.7531C64.4987 85.1978 64.1821 80.4575 62.6035 76.0741C61.0248 71.6906 58.2477 67.841 54.5897 64.9652C56.8897 59.8945 57.4225 54.1959 56.1026 48.785C54.7826 43.3741 51.6866 38.5652 47.3118 35.1311H47.3269Z" fill="#F28594"/>
<path opacity="0.1" d="M7.97031 60.5638C9.27965 65.9789 12.3747 70.792 16.7539 74.2229C14.8289 78.465 14.1333 83.1644 14.7467 87.7841C15.3601 92.4037 17.2577 96.7571 20.2226 100.347C23.1874 103.936 27.0999 106.617 31.5127 108.082C35.9256 109.548 40.6606 109.739 45.1767 108.634C49.6927 107.528 53.8074 105.172 57.0505 101.833C60.2935 98.4938 62.534 94.3074 63.5157 89.7521C64.4975 85.1968 64.181 80.4565 62.6023 76.0731C61.0236 71.6897 58.2465 67.84 54.5885 64.9642C56.817 60.0707 7.31531 57.8567 7.97031 60.5638Z" fill="black"/>
</g>
<path d="M265.088 28.6089H21.9739C21.6889 28.6092 21.4068 28.6659 21.1437 28.7756C20.8806 28.8853 20.6417 29.0459 20.4405 29.2482C20.2394 29.4506 20.08 29.6907 19.9715 29.9549C19.863 30.219 19.8075 30.502 19.8081 30.7877V179.953C19.8071 180.529 19.9193 181.1 20.1382 181.632C20.3571 182.165 20.6785 182.648 21.084 183.056C21.4895 183.464 21.9711 183.788 22.5014 184.009C23.0318 184.231 23.6004 184.345 24.1748 184.346H262.887C263.462 184.345 264.03 184.231 264.561 184.009C265.091 183.788 265.573 183.464 265.978 183.056C266.384 182.648 266.705 182.165 266.924 181.632C267.143 181.1 267.255 180.529 267.254 179.953V30.7877C267.255 30.2109 267.027 29.6575 266.621 29.249C266.215 28.8404 265.664 28.6102 265.088 28.6089Z" fill="url(#paint0_linear)"/>
<path d="M266.27 37.8674V179.075C266.27 180.226 265.814 181.33 265.002 182.145C264.191 182.959 263.09 183.417 261.941 183.418H25.1636C24.0148 183.418 22.913 182.96 22.1007 182.146C21.2884 181.331 20.832 180.227 20.832 179.075V37.8674H266.27Z" fill="white"/>
<path d="M53.1857 36.1567V183.418H25.1636C24.0148 183.418 22.913 182.96 22.1007 182.146C21.2884 181.331 20.832 180.227 20.832 179.075V36.1693L53.1857 36.1567Z" fill="#D7D9E1"/>
<path d="M266.27 31.5953V37.8676H20.832V31.5953C20.832 31.0241 21.0584 30.4763 21.4612 30.0724C21.8641 29.6686 22.4105 29.4417 22.9802 29.4417H264.122C264.692 29.4417 265.238 29.6686 265.641 30.0724C266.044 30.4763 266.27 31.0241 266.27 31.5953Z" fill="#EDEDF4"/>
<path opacity="0.8" d="M24.7219 34.5994C25.2763 34.5994 25.7257 34.1489 25.7257 33.593C25.7257 33.0372 25.2763 32.5867 24.7219 32.5867C24.1675 32.5867 23.718 33.0372 23.718 33.593C23.718 34.1489 24.1675 34.5994 24.7219 34.5994Z" fill="#FA5959"/>
<path opacity="0.8" d="M27.4824 34.5994C28.0368 34.5994 28.4862 34.1489 28.4862 33.593C28.4862 33.0372 28.0368 32.5867 27.4824 32.5867C26.9279 32.5867 26.4785 33.0372 26.4785 33.593C26.4785 34.1489 26.9279 34.5994 27.4824 34.5994Z" fill="#FED253"/>
<path opacity="0.8" d="M30.2433 34.5994C30.7977 34.5994 31.2472 34.1489 31.2472 33.593C31.2472 33.0372 30.7977 32.5867 30.2433 32.5867C29.6889 32.5867 29.2395 33.0372 29.2395 33.593C29.2395 34.1489 29.6889 34.5994 30.2433 34.5994Z" fill="#8CCF4D"/>
<path d="M47.6649 50.2461H24.0747V52.762H47.6649V50.2461Z" fill="#EDEDF4"/>
<path d="M47.6649 57.5422H24.0747V60.0582H47.6649V57.5422Z" fill="#EDEDF4"/>
<path d="M47.6649 64.8386H24.0747V67.3546H47.6649V64.8386Z" fill="#EDEDF4"/>
<path d="M47.6649 72.1348H24.0747V74.6507H47.6649V72.1348Z" fill="#EDEDF4"/>
<path d="M47.6649 79.4312H24.0747V81.9471H47.6649V79.4312Z" fill="#EDEDF4"/>
<path d="M157.836 25.8438V24.8374H156.33V25.8438H157.836Z" fill="url(#paint1_linear)"/>
<path opacity="0.1" d="M228.564 54.6035H90.0342V141.152H228.564V54.6035Z" fill="#F28594"/>
<path d="M228.564 150.965H209.491V157.003H228.564V150.965Z" fill="#F28594"/>
<path d="M219.027 61.2104H79.2429V149.641H219.027V61.2104Z" fill="#D7D9E1"/>
<path d="M218.525 62.1516H79.9958V148.7H218.525V62.1516Z" fill="white"/>
<path opacity="0.1" d="M158.797 73.7224H145.747C145.195 73.7224 144.743 74.0495 144.743 74.447V75.1691C144.75 75.2821 144.785 75.3916 144.847 75.4868C144.908 75.582 144.992 75.6598 145.092 75.7125H142.234C141.682 75.7125 141.23 76.0371 141.23 76.4371V77.1592C141.23 77.5567 141.682 77.8838 142.234 77.8838H142.52C142.498 77.941 142.487 78.0013 142.485 78.0624V78.787C142.485 79.1845 142.937 79.5091 143.489 79.5091H156.538C157.091 79.5091 157.542 79.1845 157.542 78.787V78.0624C157.542 77.6649 157.091 77.3403 156.538 77.3403H156.252C156.274 77.2824 156.286 77.2211 156.288 77.1592V76.4371C156.281 76.3241 156.246 76.2146 156.184 76.1194C156.123 76.0242 156.039 75.9464 155.939 75.8937H158.797C159.349 75.8937 159.801 75.5691 159.801 75.1691V74.447C159.801 74.0495 159.349 73.7224 158.797 73.7224Z" fill="#F28594"/>
<path opacity="0.1" d="M140.226 89.0696H127.176C126.624 89.0696 126.172 89.3967 126.172 89.7942V90.5163C126.179 90.6293 126.214 90.7387 126.275 90.834C126.337 90.9292 126.421 91.007 126.521 91.0597H123.663C123.111 91.0597 122.659 91.3843 122.659 91.7843V92.5064C122.659 92.9039 123.111 93.231 123.663 93.231H123.949C123.927 93.2881 123.915 93.3485 123.914 93.4096V94.1342C123.914 94.5317 124.365 94.8563 124.918 94.8563H137.967C138.52 94.8563 138.971 94.5317 138.971 94.1342V93.4096C138.971 93.0121 138.52 92.6875 137.967 92.6875H137.681C137.703 92.6295 137.715 92.5683 137.716 92.5064V91.7843C137.71 91.6712 137.675 91.5618 137.613 91.4666C137.552 91.3713 137.468 91.2936 137.368 91.2408H140.226C140.778 91.2408 141.23 90.9163 141.23 90.5163V89.7942C141.23 89.3967 140.778 89.0696 140.226 89.0696Z" fill="#F28594"/>
<path opacity="0.1" d="M171.596 91.8372H158.546C157.994 91.8372 157.542 92.1642 157.542 92.5618V93.2838C157.549 93.3969 157.584 93.5063 157.645 93.6015C157.706 93.6968 157.791 93.7745 157.891 93.8273H155.033C154.481 93.8273 154.029 94.1518 154.029 94.5519V95.2739C154.029 95.6715 154.481 95.9985 155.033 95.9985H155.319C155.297 96.0557 155.285 96.1161 155.284 96.1772V96.9018C155.284 97.2993 155.735 97.6238 156.287 97.6238H169.337C169.889 97.6238 170.341 97.2993 170.341 96.9018V96.1772C170.341 95.7796 169.889 95.4551 169.337 95.4551H169.051C169.073 95.3971 169.085 95.3359 169.086 95.2739V94.5519C169.08 94.4388 169.044 94.3294 168.983 94.2341C168.922 94.1389 168.837 94.0612 168.738 94.0084H171.596C172.148 94.0084 172.6 93.6839 172.6 93.2838V92.5618C172.6 92.1642 172.148 91.8372 171.596 91.8372Z" fill="#F28594"/>
<path opacity="0.1" d="M146.88 94.5614C147.287 94.0058 146.886 93.0182 145.986 92.3554C145.085 91.6927 144.025 91.6059 143.619 92.1615C143.212 92.7171 143.612 93.7047 144.513 94.3674C145.413 95.0301 146.473 95.117 146.88 94.5614Z" fill="#F28594"/>
<path opacity="0.1" d="M141.862 68.3934C142.269 67.8378 141.869 66.8502 140.968 66.1875C140.068 65.5248 139.008 65.4379 138.601 65.9935C138.195 66.5491 138.595 67.5367 139.495 68.1995C140.396 68.8622 141.456 68.949 141.862 68.3934Z" fill="#F28594"/>
<path opacity="0.1" d="M158.425 85.7572C158.832 85.2016 158.432 84.214 157.531 83.5513C156.631 82.8885 155.571 82.8017 155.164 83.3573C154.757 83.9129 155.158 84.9005 156.058 85.5632C156.959 86.2259 158.018 86.3128 158.425 85.7572Z" fill="#F28594"/>
<g opacity="0.7">
<path opacity="0.7" d="M111.489 148.698H107.975C108.529 148.456 109.127 148.332 109.732 148.332C110.336 148.332 110.934 148.456 111.489 148.698Z" fill="#3F3D56"/>
<path opacity="0.7" d="M115.381 146.685C115.383 147.361 115.311 148.036 115.168 148.698H104.301C103.933 146.981 104.044 145.195 104.622 143.537C104.793 143.058 105.008 142.597 105.265 142.159C106.296 140.397 107.915 139.278 109.734 139.278C111.554 139.278 113.173 140.405 114.204 142.159C114.453 142.584 114.663 143.031 114.831 143.495C115.199 144.518 115.385 145.597 115.381 146.685Z" fill="#3F3D56"/>
<path opacity="0.7" d="M109.734 145.039C112.853 145.039 115.381 141.722 115.381 137.63C115.381 133.538 112.853 130.22 109.734 130.22C106.616 130.22 104.088 133.538 104.088 137.63C104.088 141.722 106.616 145.039 109.734 145.039Z" fill="#3F3D56"/>
<path opacity="0.7" d="M109.734 135.982C112.853 135.982 115.381 132.665 115.381 128.573C115.381 124.48 112.853 121.163 109.734 121.163C106.616 121.163 104.088 124.48 104.088 128.573C104.088 132.665 106.616 135.982 109.734 135.982Z" fill="#3F3D56"/>
<path opacity="0.7" d="M130.873 100.117C133.735 103.766 135.615 108.091 136.332 112.677C137.05 117.263 136.582 121.957 134.972 126.31C133.362 130.662 130.665 134.528 127.139 137.536C123.612 140.545 119.375 142.595 114.831 143.492C114.181 143.62 113.524 143.726 112.859 143.802C110.797 144.052 108.714 144.063 106.65 143.834C105.966 143.762 105.29 143.662 104.622 143.535C100.052 142.675 95.7799 140.647 92.2188 137.649C88.6576 134.651 85.9277 130.783 84.2925 126.419C82.6573 122.054 82.1721 117.341 82.8838 112.734C83.5954 108.127 85.4799 103.781 88.3552 100.117C85.5733 96.5711 83.7175 92.3855 82.9559 87.9392C82.1943 83.493 82.551 78.9265 83.9935 74.6532L104.53 81.5645L85.2659 71.5334C86.1138 69.7784 87.1479 68.12 88.3502 66.5871C87.264 65.2036 86.3151 63.7172 85.5169 62.1489H124.862L132.976 63.4849C132.346 64.5658 131.643 65.6023 130.873 66.5871C134.63 71.3631 136.669 77.2707 136.66 83.3533C136.66 83.4213 136.66 83.4917 136.66 83.5596C136.653 84.7254 136.569 85.8895 136.409 87.0442C136.319 87.7286 136.201 88.4037 136.058 89.0696C135.63 91.0661 134.977 93.0074 134.113 94.8563C134.06 94.972 134.005 95.0852 133.95 95.1984C133.383 96.3667 132.733 97.4925 132.005 98.5673C131.658 99.0705 131.297 99.5737 130.915 100.059L130.873 100.117Z" fill="#F28594"/>
<path opacity="0.1" d="M82.5655 83.3533C82.556 89.4364 84.5961 95.3444 88.3551 100.12C85.2175 104.119 83.2657 108.923 82.723 113.982C82.1803 119.041 83.0685 124.152 85.2861 128.728C87.5037 133.305 90.9612 137.164 95.2633 139.864C99.5654 142.564 104.538 143.996 109.614 143.996C114.689 143.996 119.662 142.564 123.964 139.864C128.267 137.164 131.724 133.305 133.942 128.728C136.159 124.152 137.047 119.041 136.505 113.982C135.962 108.923 134.01 104.119 130.873 100.12C134.496 95.5054 82.5655 80.309 82.5655 83.3533Z" fill="black"/>
<path opacity="0.7" d="M193.003 148.697H183.065C183.208 148.35 183.375 148.014 183.567 147.691C184.598 145.93 186.217 144.81 188.036 144.81C189.856 144.81 191.474 145.937 192.506 147.691C192.695 148.014 192.861 148.35 193.003 148.697Z" fill="#3F3D56"/>
<path opacity="0.7" d="M193.68 143.162C193.696 144.75 193.29 146.313 192.503 147.691C192.295 148.047 192.056 148.384 191.788 148.697H184.279C184.012 148.384 183.772 148.047 183.564 147.691C182.778 146.313 182.371 144.75 182.387 143.162C182.387 139.069 184.914 135.753 188.034 135.753C191.153 135.753 193.68 139.069 193.68 143.162Z" fill="#3F3D56"/>
<path opacity="0.7" d="M209.215 114.652L209.172 114.71C212.929 119.486 214.968 125.393 214.959 131.476C214.959 131.906 214.959 132.336 214.929 132.762C214.929 132.882 214.929 133.013 214.909 133.126L214.894 133.378C214.894 133.526 214.871 133.677 214.856 133.826C214.841 133.974 214.831 134.148 214.811 134.306C214.791 134.465 214.771 134.696 214.746 134.89V134.953C214.728 135.096 214.708 135.24 214.685 135.381C214.685 135.481 214.658 135.582 214.643 135.68C214.583 136.073 214.512 136.463 214.434 136.847C214.414 136.958 214.389 137.069 214.364 137.18C214.339 137.29 214.319 137.406 214.291 137.519C214.264 137.632 214.231 137.771 214.199 137.907C214.191 137.948 214.181 137.99 214.168 138.03C214.136 138.168 214.101 138.304 214.066 138.44C214.03 138.576 214.01 138.649 213.978 138.755C213.938 138.911 213.892 139.067 213.845 139.223C213.797 139.379 213.752 139.529 213.704 139.683C213.537 140.24 213.344 140.787 213.127 141.323C213.057 141.502 212.986 141.678 212.914 141.854C212.858 141.99 212.801 142.123 212.743 142.254C212.71 142.33 212.678 142.405 212.643 142.481C212.607 142.556 212.562 142.664 212.52 142.755C212.477 142.845 212.412 143.007 212.354 143.11C212.276 143.276 212.196 143.442 212.103 143.613C212.055 143.708 212.008 143.804 211.957 143.9C211.601 144.596 211.214 145.274 210.796 145.935C210.698 146.091 210.597 146.247 210.494 146.401C210.391 146.56 210.285 146.716 210.178 146.868L209.875 147.311C209.54 147.788 209.183 148.252 208.803 148.705H167.021C166.647 148.25 166.285 147.782 165.942 147.301L165.743 147.022C165.676 146.924 165.605 146.826 165.54 146.725L165.437 146.572C165.352 146.446 165.269 146.32 165.186 146.192L165.096 146.051C165.003 145.905 164.91 145.756 164.82 145.605C164.481 145.052 164.165 144.486 163.866 143.907C163.816 143.812 163.766 143.716 163.721 143.62C163.638 143.457 163.557 143.291 163.47 143.117C163.411 143.001 163.356 142.883 163.304 142.762C163.261 142.672 163.219 142.581 163.181 142.488C163.143 142.395 163.113 142.337 163.081 142.262C163.023 142.131 162.965 142.01 162.91 141.862C162.837 141.686 162.767 141.51 162.697 141.331C162.486 140.792 162.295 140.247 162.119 139.69C162.072 139.537 162.024 139.384 161.979 139.23C161.934 139.077 161.886 138.918 161.846 138.762C161.813 138.656 161.786 138.553 161.758 138.448C161.73 138.342 161.688 138.176 161.655 138.038C161.642 137.997 161.632 137.956 161.625 137.914C161.592 137.786 161.562 137.663 161.532 137.527C161.502 137.391 161.482 137.3 161.459 137.187C161.437 137.074 161.409 136.966 161.389 136.855C161.311 136.47 161.241 136.08 161.181 135.688C161.166 135.589 161.151 135.489 161.138 135.388C161.116 135.247 161.096 135.104 161.078 134.96V134.898C161.053 134.704 161.03 134.508 161.013 134.314C160.995 134.12 160.978 133.994 160.968 133.833C160.958 133.672 160.94 133.534 160.93 133.386L160.915 133.134C160.915 133.013 160.9 132.882 160.895 132.769C160.875 132.344 160.865 131.914 160.865 131.483C160.855 125.4 162.895 119.492 166.654 114.717C166.509 114.534 166.368 114.347 166.228 114.159L166.135 114.033C166.026 113.889 165.921 113.743 165.819 113.595L165.721 113.457C165.6 113.283 165.47 113.107 165.364 112.931C165.346 112.906 165.329 112.88 165.314 112.853C165.191 112.667 165.063 112.48 164.953 112.289L164.877 112.171C164.767 111.987 164.654 111.804 164.546 111.618L164.491 111.522C164.378 111.326 164.268 111.129 164.16 110.931L164.122 110.86C164.024 110.682 163.931 110.503 163.839 110.322C163.608 109.871 163.387 109.414 163.184 108.948C163.063 108.676 162.933 108.405 162.835 108.128L162.795 108.027C162.724 107.854 162.657 107.68 162.591 107.504C162.526 107.328 162.463 107.154 162.401 106.978C162.338 106.802 162.278 106.623 162.22 106.447C162.124 106.155 162.034 105.864 161.946 105.567C161.924 105.491 161.901 105.413 161.881 105.338C161.833 105.167 161.786 104.996 161.74 104.822C161.695 104.641 161.65 104.46 161.607 104.278C161.565 104.097 161.53 103.949 161.492 103.775L161.469 103.67C161.429 103.482 161.392 103.293 161.357 103.104C161.329 102.96 161.301 102.817 161.279 102.671C161.269 102.63 161.261 102.589 161.256 102.548C161.229 102.399 161.206 102.251 161.183 102.102C161.153 101.911 161.126 101.72 161.101 101.529C161.073 101.312 161.045 101.096 161.023 100.879C161.023 100.847 161.023 100.812 161.023 100.779C161.003 100.58 160.983 100.379 160.97 100.18C160.958 99.9813 160.94 99.8228 160.93 99.6441C160.93 99.5108 160.912 99.3749 160.907 99.2391C160.902 99.1032 160.907 99.0176 160.895 98.9069C160.882 98.7962 160.895 98.6906 160.895 98.5799C160.895 98.3702 160.895 98.1614 160.895 97.9534V97.883C160.901 94.9478 161.383 92.0331 162.323 89.2532L182.859 96.1646L163.565 86.1259C164.413 84.3709 165.447 82.7125 166.649 81.1796C165.451 79.6565 164.42 78.0083 163.575 76.2634C163.01 75.1041 162.53 73.905 162.14 72.6757C161.289 70.0054 160.857 67.2189 160.86 64.4158C160.86 63.661 160.892 62.9062 160.955 62.1514H195.971L191.472 65.4649L197.849 62.1489H214.864C214.929 62.9037 214.959 63.6585 214.959 64.4133C214.963 68.3273 214.119 72.1956 212.484 75.7501L196.441 75.6344L211.277 78.0774C210.648 79.1583 209.945 80.1948 209.174 81.1796C212.913 85.9488 214.95 91.8372 214.957 97.9033C214.965 103.969 212.944 109.863 209.217 114.642L209.215 114.652Z" fill="#F28594"/>
<path opacity="0.1" d="M214.959 131.476C214.959 131.906 214.959 132.336 214.929 132.762C214.929 132.882 214.929 133.013 214.909 133.126L214.894 133.378C214.894 133.526 214.871 133.677 214.856 133.826C214.841 133.974 214.831 134.148 214.811 134.306C214.791 134.465 214.771 134.696 214.746 134.89V134.953C214.728 135.096 214.708 135.24 214.686 135.381C214.686 135.481 214.658 135.582 214.643 135.68C214.583 136.073 214.512 136.463 214.435 136.847C214.415 136.958 214.389 137.069 214.364 137.18C214.339 137.29 214.319 137.406 214.292 137.519C214.264 137.632 214.231 137.771 214.199 137.907C214.191 137.948 214.181 137.99 214.169 138.03C214.136 138.168 214.101 138.304 214.066 138.44C214.031 138.576 214.01 138.649 213.978 138.755C213.938 138.911 213.893 139.067 213.845 139.223C213.797 139.379 213.752 139.53 213.704 139.683C213.537 140.24 213.345 140.787 213.127 141.323C213.057 141.502 212.987 141.678 212.914 141.854C212.859 141.99 212.801 142.123 212.743 142.254C212.71 142.33 212.678 142.405 212.643 142.481C212.608 142.556 212.562 142.664 212.52 142.755C212.477 142.846 212.412 143.007 212.354 143.11C212.276 143.276 212.196 143.442 212.103 143.613C212.055 143.708 212.008 143.804 211.958 143.9C211.601 144.596 211.214 145.274 210.796 145.935C210.698 146.091 210.597 146.247 210.495 146.401C210.391 146.56 210.285 146.716 210.178 146.869L209.875 147.311C209.54 147.788 209.183 148.252 208.803 148.705H167.021C166.647 148.25 166.285 147.782 165.942 147.301L165.743 147.022C165.676 146.924 165.605 146.826 165.54 146.725L165.437 146.572C165.352 146.446 165.269 146.32 165.186 146.192L165.096 146.051C165.003 145.905 164.91 145.756 164.82 145.606C164.481 145.052 164.165 144.486 163.866 143.907C163.816 143.812 163.766 143.716 163.721 143.62C163.638 143.457 163.558 143.291 163.47 143.117C163.411 143.002 163.356 142.883 163.304 142.762C163.261 142.672 163.219 142.581 163.181 142.488C163.143 142.395 163.113 142.337 163.081 142.262C163.023 142.131 162.965 142.01 162.91 141.862C162.837 141.686 162.767 141.51 162.697 141.331C162.486 140.793 162.295 140.247 162.12 139.691C162.072 139.537 162.024 139.384 161.979 139.23C161.934 139.077 161.886 138.918 161.846 138.762C161.813 138.656 161.786 138.553 161.758 138.448C161.731 138.342 161.688 138.176 161.655 138.038C161.643 137.997 161.633 137.956 161.625 137.914C161.593 137.786 161.562 137.663 161.532 137.527C161.502 137.391 161.482 137.3 161.46 137.187C161.437 137.074 161.409 136.966 161.389 136.855C161.311 136.47 161.241 136.08 161.181 135.688C161.166 135.59 161.151 135.489 161.138 135.388C161.116 135.247 161.096 135.104 161.078 134.961V134.898C161.053 134.704 161.03 134.508 161.013 134.314C160.995 134.12 160.978 133.994 160.968 133.833C160.958 133.672 160.94 133.534 160.93 133.386L160.915 133.134C160.915 133.013 160.9 132.882 160.895 132.769C160.875 132.344 160.865 131.914 160.865 131.484C160.855 125.4 162.895 119.492 166.654 114.717C166.509 114.534 166.368 114.347 166.228 114.159L166.135 114.033C166.026 113.889 165.921 113.743 165.819 113.595L165.721 113.457C165.6 113.283 165.47 113.107 165.364 112.931C165.346 112.906 165.33 112.88 165.314 112.853C165.191 112.667 165.063 112.481 164.953 112.289L164.878 112.171C164.767 111.987 164.654 111.804 164.546 111.618L164.491 111.522C164.378 111.326 164.268 111.129 164.16 110.931L164.122 110.86C164.024 110.682 163.932 110.503 163.839 110.322C163.608 109.871 163.387 109.414 163.184 108.948C163.063 108.676 162.933 108.405 162.835 108.128L162.795 108.027C162.724 107.854 162.657 107.68 162.591 107.504C162.526 107.328 162.463 107.154 162.401 106.978C162.338 106.802 162.278 106.623 162.22 106.447C162.125 106.155 162.034 105.864 161.946 105.567C161.924 105.491 161.901 105.413 161.881 105.338C161.833 105.167 161.786 104.996 161.741 104.822C161.695 104.641 161.65 104.46 161.608 104.279C161.565 104.097 161.53 103.949 161.492 103.775L161.47 103.67C161.429 103.482 161.392 103.293 161.357 103.104C161.329 102.96 161.301 102.817 161.279 102.671C161.269 102.63 161.262 102.589 161.256 102.548C161.229 102.399 161.206 102.251 161.184 102.102C161.153 101.911 161.126 101.72 161.101 101.529C161.073 101.312 161.045 101.096 161.023 100.879C161.023 100.847 161.023 100.812 161.023 100.779C161.003 100.58 160.983 100.379 160.97 100.18C160.958 99.9813 160.94 99.8228 160.93 99.6442C160.93 99.5108 160.912 99.3749 160.907 99.2391C160.902 99.1032 160.907 99.0177 160.895 98.907C160.882 98.7963 160.895 98.6906 160.895 98.5799C160.895 98.3702 160.895 98.1614 160.895 97.9534C160.89 97.9302 160.89 97.9062 160.895 97.883C161.033 97.4226 162.609 97.4679 165.114 97.883C167.104 98.2126 169.676 98.7762 172.585 99.5058C187.577 103.265 211.398 111.429 209.225 114.659L209.182 114.717C212.934 119.493 214.969 125.397 214.959 131.476Z" fill="black"/>
<path opacity="0.7" d="M139.889 85.9663C141.163 84.689 141.561 83.0164 140.777 82.2303C139.993 81.4443 138.324 81.8426 137.05 83.1199C135.776 84.3972 135.379 86.0698 136.163 86.8559C136.947 87.6419 138.615 87.2436 139.889 85.9663Z" fill="#F28594"/>
<path opacity="0.7" d="M163.228 76.6563C164.502 75.379 164.899 73.7063 164.115 72.9203C163.331 72.1342 161.663 72.5325 160.389 73.8098C159.115 75.0871 158.717 76.7598 159.501 77.5458C160.285 78.3318 161.954 77.9336 163.228 76.6563Z" fill="#F28594"/>
<path opacity="0.7" d="M216.43 93.262C217.704 91.9847 218.101 90.312 217.317 89.526C216.533 88.74 214.865 89.1382 213.591 90.4155C212.317 91.6928 211.92 93.3655 212.704 94.1515C213.488 94.9375 215.156 94.5393 216.43 93.262Z" fill="#F28594"/>
<path opacity="0.7" d="M136.334 99.3222C136.991 98.4261 136.345 96.8332 134.892 95.7643C133.44 94.6954 131.731 94.5553 131.074 95.4514C130.418 96.3475 131.064 97.9405 132.516 99.0094C133.969 100.078 135.678 100.218 136.334 99.3222Z" fill="#F28594"/>
<path opacity="0.7" d="M165.071 147.128C165.011 147.003 164.96 146.873 164.92 146.74C164.885 146.431 164.893 146.119 164.943 145.812V145.802C164.941 145.582 164.917 145.363 164.87 145.148C164.72 144.322 164.572 143.495 164.423 142.669C164.353 142.287 164.285 141.915 164.253 141.522C164.22 141.13 164.223 140.73 164.218 140.335C164.198 139.051 163.967 137.776 163.922 136.495C163.896 135.829 163.844 135.162 163.791 134.498C163.698 133.353 163.598 132.211 163.397 131.081C163.239 130.185 162.79 129.35 162.782 128.439L162.767 127.023C162.794 126.618 162.73 126.212 162.579 125.835C162.402 125.524 162.165 125.252 161.881 125.035L161.67 124.856C161.001 124.279 160.308 123.729 159.59 123.204C159.525 123.151 159.459 123.103 159.394 123.055C159.655 123.106 159.924 123.087 160.175 123C160.264 122.959 160.341 122.896 160.399 122.817C160.457 122.737 160.494 122.644 160.506 122.547C160.514 122.48 160.502 122.413 160.473 122.353C160.382 122.211 160.24 122.11 160.077 122.069C159.786 121.981 159.485 121.932 159.181 121.92H159.128C159.158 121.798 159.182 121.673 159.198 121.548C159.241 121.184 159.234 120.816 159.178 120.454C159.18 120.43 159.18 120.407 159.178 120.383C159.093 119.804 158.927 119.231 158.825 118.652C158.812 118.579 158.802 118.506 158.792 118.433C158.745 118.162 158.721 117.888 158.719 117.613C158.719 116.247 159.412 114.991 159.811 113.686C160.127 112.647 160.262 111.56 160.21 110.475C160.21 110.395 160.21 110.314 160.192 110.224C160.123 109.242 159.901 108.278 159.532 107.366C159.101 106.301 158.473 105.305 158.262 104.178C158.247 104.095 158.235 104.017 158.222 103.926C158.222 103.911 158.222 103.899 158.222 103.884C158.139 103.234 158.17 102.575 158.112 101.924V101.868C158.112 101.742 158.087 101.617 158.064 101.488C157.685 99.2366 155.683 97.5031 153.482 96.9068C151.783 96.4439 150.054 96.5898 148.347 96.9068C146.876 97.1811 145.536 96.5797 144.081 96.7709C143.506 96.8464 142.906 97.0351 142.537 97.483C142.347 97.7601 142.176 98.0492 142.023 98.3485C141.368 99.375 140.068 99.7171 138.991 100.278C137.352 101.129 136.045 102.719 135.802 104.555C135.573 106.254 136.241 107.939 136.341 109.65C136.379 110.361 136.334 111.073 136.208 111.774C135.957 113.215 135.455 114.634 135.011 116.036C134.791 116.607 134.678 117.214 134.677 117.827C134.716 118.243 134.809 118.653 134.953 119.045C135.164 119.689 135.402 120.325 135.676 120.947C135.168 121.154 134.636 121.293 134.092 121.362C133.535 121.425 132.946 121.402 132.464 121.686C132.241 121.827 132.048 122.011 131.897 122.227C131.667 122.549 131.503 122.912 131.415 123.298C131.326 123.683 131.315 124.082 131.382 124.472C131.282 124.535 131.2 124.623 131.144 124.728C131.087 124.832 131.059 124.949 131.061 125.068C131.061 125.304 131.101 125.541 131.111 125.777C131.094 126.225 131.009 126.668 130.86 127.091C130.465 128.54 130.367 130.055 130.572 131.544C130.672 132.284 130.75 133.018 130.807 133.755C130.94 135.398 130.993 137.039 131.058 138.699C131.129 140.274 130.998 141.867 131.259 143.424C131.347 143.945 131.51 144.496 131.917 144.823C132.015 144.891 132.108 144.966 132.195 145.047C132.426 145.299 132.434 145.656 132.509 145.98C132.631 146.428 132.904 146.819 133.28 147.088C133.657 147.357 134.115 147.488 134.577 147.457L134.155 148.677H160.172C160.145 148.44 160.145 148.2 160.172 147.963V147.978C160.304 148.187 160.371 148.43 160.365 148.677H165.322C165.344 148.149 165.259 147.622 165.071 147.128Z" fill="url(#paint2_linear)"/>
<path opacity="0.7" d="M144.186 97.0778C143.614 97.1533 143.019 97.3294 142.653 97.7848C142.468 98.0611 142.3 98.3484 142.151 98.6452C141.503 99.6642 140.213 100.004 139.139 100.56C137.513 101.405 136.216 102.988 135.972 104.809C135.749 106.498 136.409 108.171 136.509 109.871C136.64 112.04 135.854 114.149 135.189 116.214C134.97 116.782 134.858 117.385 134.858 117.993C134.895 118.407 134.987 118.815 135.131 119.206C135.741 121.06 136.569 122.866 137.802 124.381C139.034 125.895 140.698 127.103 142.595 127.551C143.465 127.729 144.35 127.824 145.238 127.833C146.596 127.883 147.955 127.907 149.313 127.906C150.06 127.927 150.807 127.877 151.544 127.757C153.098 127.455 154.47 126.572 155.798 125.707C157.326 124.7 159.005 123.49 159.236 121.681C159.402 120.373 158.749 119.09 158.749 117.771C158.749 116.415 159.437 115.167 159.833 113.869C160.458 111.809 160.36 109.597 159.557 107.599C159.128 106.545 158.506 105.554 158.303 104.434C158.139 103.556 158.24 102.648 158.094 101.77C157.72 99.5308 155.73 97.8099 153.544 97.2162C151.858 96.7583 150.144 96.9017 148.447 97.2162C146.974 97.4954 145.642 96.8866 144.186 97.0778Z" fill="#3F3D56"/>
<path opacity="0.7" d="M144.648 115.832C144.974 117.254 144.727 118.748 143.96 119.988C143.554 120.578 143.057 121.099 142.487 121.531C141.621 122.236 140.637 122.781 139.581 123.141C140.24 123.66 141.003 124.032 141.817 124.23C142.444 124.365 143.081 124.443 143.722 124.462C146.94 124.633 150.167 124.516 153.364 124.112C154.433 123.976 155.547 123.79 156.41 123.146C156.487 123.099 156.547 123.028 156.581 122.944C156.644 122.731 156.39 122.57 156.182 122.499C155.151 122.147 154.041 121.943 153.15 121.314C151.785 120.356 151.216 118.592 151.093 116.924C150.97 115.256 151.211 113.575 151.047 111.91C148.844 111.878 146.641 111.942 144.44 112.103C144.189 112.121 143.082 112.058 142.951 112.272C142.821 112.486 143.421 113.097 143.571 113.329C144.082 114.089 144.448 114.938 144.648 115.832Z" fill="#FBBEBE"/>
<path opacity="0.1" d="M147.699 115.884C151.857 115.884 155.228 112.505 155.228 108.337C155.228 104.168 151.857 100.789 147.699 100.789C143.541 100.789 140.171 104.168 140.171 108.337C140.171 112.505 143.541 115.884 147.699 115.884Z" fill="black"/>
<path opacity="0.7" d="M147.699 115.618C151.857 115.618 155.228 112.239 155.228 108.07C155.228 103.901 151.857 100.522 147.699 100.522C143.541 100.522 140.171 103.901 140.171 108.07C140.171 112.239 143.541 115.618 147.699 115.618Z" fill="#FBBEBE"/>
<path opacity="0.7" d="M158.268 135.851C157.653 138.367 157.264 140.994 157.527 143.583C157.693 145.228 158.253 147.014 158.323 148.697H139.667C139.667 147.822 139.667 146.919 139.652 146.015C139.652 145.837 139.652 145.661 139.652 145.48C139.652 145.248 139.652 145.017 139.652 144.783C139.652 144.078 139.652 143.381 139.652 142.702C139.652 141.477 139.652 140.251 139.524 139.034C139.287 136.865 138.785 134.734 138.03 132.689C137.978 132.538 137.925 132.387 137.87 132.238C137.863 132.223 137.857 132.207 137.852 132.19C137.794 132.039 137.739 131.888 137.681 131.735C136.773 129.317 135.737 126.804 136.233 124.288C136.339 123.778 136.507 123.284 136.735 122.816C137.149 121.949 137.749 121.184 138.492 120.577L138.565 120.516C138.823 120.314 139.097 120.133 139.383 119.973C139.529 119.891 139.679 119.816 139.832 119.749L139.89 119.724C140.237 119.571 140.61 119.485 140.989 119.472C141.935 119.457 142.786 119.998 143.577 120.526L143.639 120.569L143.745 120.637L143.865 120.718C144.176 120.924 144.493 121.13 144.811 121.326L144.964 121.42C145.851 121.984 146.804 122.435 147.803 122.761C149.308 123.218 151.01 123.236 152.388 122.474C152.654 122.322 152.906 122.146 153.141 121.948C153.288 121.827 153.43 121.698 153.565 121.563C153.863 121.267 154.142 120.953 154.4 120.622C154.764 121.337 155.56 121.628 156.22 122.091C156.939 122.611 157.518 123.303 157.904 124.104C158.014 124.32 158.112 124.542 158.2 124.766C158.578 125.829 158.83 126.932 158.953 128.054C159.136 129.154 159.209 130.269 159.171 131.383C159.071 132.897 158.629 134.372 158.268 135.851Z" fill="#3F3D56"/>
<path opacity="0.7" d="M141.017 121.388L143.735 120.744C144.126 120.651 144.368 120.258 144.276 119.866L141.647 108.715C141.554 108.323 141.162 108.08 140.771 108.173L138.053 108.817C137.662 108.91 137.42 109.303 137.512 109.695L140.141 120.846C140.234 121.238 140.626 121.48 141.017 121.388Z" fill="#F28594"/>
<path opacity="0.7" d="M140.958 121.404L143.368 120.833C143.759 120.74 144.001 120.347 143.909 119.955L141.28 108.805C141.187 108.413 140.795 108.17 140.404 108.262L137.994 108.834C137.602 108.926 137.36 109.319 137.453 109.712L140.082 120.862C140.174 121.254 140.566 121.497 140.958 121.404Z" fill="#EDEDF4"/>
<path opacity="0.7" d="M139.788 112.176C139.99 112.128 140.06 111.69 139.944 111.198C139.828 110.705 139.57 110.345 139.367 110.393C139.165 110.441 139.095 110.879 139.211 111.371C139.327 111.863 139.585 112.224 139.788 112.176Z" fill="#F28594"/>
<path opacity="0.7" d="M147.08 148.698H134.354L134.785 147.44H134.77C134.312 147.47 133.857 147.341 133.483 147.074C133.108 146.806 132.838 146.417 132.717 145.973C132.642 145.651 132.635 145.284 132.406 145.045C132.314 144.961 132.216 144.886 132.113 144.818C131.701 144.494 131.548 143.945 131.463 143.427C131.212 141.879 131.332 140.299 131.264 138.732C131.189 136.971 131.134 135.242 130.981 133.504C130.926 132.877 130.858 132.246 130.772 131.622C130.57 130.142 130.668 128.637 131.061 127.196C131.21 126.777 131.294 126.338 131.312 125.893C131.312 125.657 131.249 125.423 131.262 125.189C131.26 125.071 131.288 124.954 131.344 124.85C131.4 124.746 131.481 124.658 131.581 124.595C131.513 124.209 131.523 123.813 131.609 123.43C131.695 123.047 131.856 122.686 132.082 122.366C132.232 122.15 132.423 121.967 132.645 121.827C133.121 121.546 133.711 121.576 134.261 121.505C134.8 121.438 135.329 121.299 135.832 121.093C136.01 121.022 136.183 120.947 136.359 120.866C136.971 120.585 137.568 120.242 138.168 119.918L138.294 119.85C138.745 119.598 139.2 119.374 139.664 119.181L139.722 119.158C140.27 118.924 140.849 118.773 141.441 118.708C142.021 118.669 142.603 118.683 143.18 118.75C143.343 118.763 143.501 118.813 143.642 118.896C143.855 119.034 144.031 119.221 144.156 119.442C144.174 119.472 144.191 119.5 144.209 119.533C144.428 119.985 144.59 120.464 144.691 120.957C144.721 121.08 144.748 121.208 144.773 121.324C144.834 121.621 144.886 121.918 144.929 122.217C145.039 122.973 145.108 123.734 145.135 124.497C145.183 125.596 145.17 126.706 145.165 127.808C145.165 127.994 145.165 128.178 145.165 128.361C145.167 128.903 145.241 129.442 145.386 129.964C145.775 131.388 145.815 132.88 145.888 134.352C146.055 137.8 146.401 141.237 146.924 144.65C147.022 145.291 147.125 145.93 147.16 146.577C147.199 147.285 147.172 147.995 147.08 148.698Z" fill="#F86D70"/>
<path opacity="0.7" d="M144.332 130.243C144.611 130.557 144.862 130.893 145.085 131.249C145.187 131.418 145.27 131.665 145.12 131.793C145.039 131.847 144.943 131.874 144.846 131.868L143.049 131.944C142.779 131.974 142.506 131.949 142.246 131.871C141.903 131.702 141.614 131.441 141.411 131.116L140.615 130.074C140.384 129.815 140.213 129.509 140.113 129.176C140.071 129.009 140.084 128.833 140.149 128.673C140.215 128.514 140.33 128.38 140.477 128.291C140.766 128.198 141.079 128.219 141.353 128.351C141.89 128.535 142.532 128.658 143.012 128.97C143.505 129.335 143.949 129.763 144.332 130.243Z" fill="#F86D70"/>
<path opacity="0.1" d="M144.332 130.243C144.611 130.557 144.862 130.893 145.085 131.249C145.187 131.418 145.27 131.665 145.12 131.793C145.039 131.847 144.943 131.874 144.846 131.868L143.049 131.944C142.779 131.974 142.506 131.949 142.246 131.871C141.903 131.702 141.614 131.441 141.411 131.116L140.615 130.074C140.384 129.815 140.213 129.509 140.113 129.176C140.071 129.009 140.084 128.833 140.149 128.673C140.215 128.514 140.33 128.38 140.477 128.291C140.766 128.198 141.079 128.219 141.353 128.351C141.89 128.535 142.532 128.658 143.012 128.97C143.505 129.335 143.949 129.763 144.332 130.243Z" fill="black"/>
<path opacity="0.1" d="M143.313 130.364C143.532 129.192 143.832 128.037 144.211 126.907C144.422 126.365 144.574 125.801 144.663 125.226C144.711 124.776 144.663 124.321 144.708 123.868C144.743 123.478 144.839 123.095 144.896 122.708C145.011 121.921 144.963 121.12 144.756 120.353C144.593 119.742 144.756 119.002 144.359 118.506C144.201 118.305 143.988 118.149 143.825 117.953C143.735 117.861 143.669 117.749 143.633 117.625C143.598 117.502 143.594 117.371 143.622 117.246C144.177 117.373 144.753 117.392 145.316 117.301C145.483 117.282 145.645 117.225 145.787 117.135C145.858 117.089 145.914 117.024 145.95 116.947C145.985 116.871 145.998 116.786 145.988 116.702C145.961 116.622 145.919 116.548 145.863 116.485C145.808 116.421 145.74 116.37 145.664 116.332C145.165 116.024 144.604 115.83 144.021 115.766C143.438 115.701 142.849 115.766 142.294 115.958C142.275 115.912 142.273 115.862 142.289 115.815C142.304 115.769 142.337 115.73 142.379 115.706C142.457 115.662 142.542 115.633 142.63 115.62C142.913 115.557 143.175 115.424 143.394 115.234C143.613 115.044 143.782 114.802 143.885 114.531C143.925 114.453 143.934 114.363 143.91 114.279C143.847 114.091 143.581 114.101 143.388 114.149L142.352 114.4C142.151 114.44 141.956 114.506 141.772 114.596C141.547 114.735 141.346 114.91 141.177 115.115C140.633 115.703 140.078 116.312 139.777 117.057C139.644 117.394 139.564 117.751 139.423 118.086C139.298 118.43 139.056 118.72 138.74 118.904C138.578 118.994 138.447 119.133 138.368 119.301C138.288 119.47 138.263 119.659 138.296 119.842C138.377 120.216 138.539 120.567 138.771 120.871C139.156 121.475 139.591 122.045 140.073 122.574C140.424 122.892 140.725 123.261 140.966 123.669C141.115 123.971 141.177 124.305 141.308 124.615C141.379 124.757 141.434 124.908 141.471 125.063C141.487 125.175 141.487 125.288 141.471 125.4C141.253 127.096 139.998 128.479 139.528 130.125C139.499 130.205 139.489 130.291 139.498 130.376C139.518 130.452 139.552 130.524 139.599 130.586C139.646 130.649 139.704 130.702 139.772 130.741C140.683 131.433 141.797 131.788 142.889 132.133C143.076 131.555 143.218 130.964 143.313 130.364Z" fill="black"/>
<path opacity="0.7" d="M143.16 130.286C143.379 129.114 143.679 127.959 144.058 126.829C144.271 126.288 144.422 125.725 144.51 125.151C144.558 124.7 144.51 124.243 144.555 123.792C144.59 123.402 144.686 123.02 144.743 122.632C144.858 121.845 144.811 121.043 144.605 120.275C144.44 119.666 144.605 118.924 144.206 118.428C144.048 118.227 143.837 118.073 143.672 117.877C143.581 117.786 143.515 117.674 143.48 117.55C143.445 117.426 143.442 117.295 143.471 117.17C144.026 117.297 144.601 117.315 145.162 117.223C145.33 117.205 145.491 117.149 145.634 117.06C145.705 117.013 145.761 116.948 145.796 116.872C145.832 116.795 145.845 116.71 145.835 116.627C145.809 116.546 145.767 116.472 145.711 116.409C145.655 116.345 145.587 116.293 145.511 116.257C145.013 115.948 144.452 115.754 143.87 115.689C143.287 115.624 142.698 115.689 142.143 115.88C142.122 115.835 142.119 115.784 142.134 115.737C142.15 115.69 142.183 115.651 142.226 115.628C142.304 115.585 142.389 115.556 142.477 115.542C142.76 115.478 143.023 115.345 143.241 115.155C143.46 114.964 143.629 114.722 143.732 114.45C143.77 114.372 143.778 114.283 143.755 114.199C143.692 114.013 143.426 114.023 143.233 114.071L142.196 114.322C141.996 114.364 141.801 114.43 141.616 114.518C141.391 114.658 141.191 114.833 141.022 115.037C140.477 115.628 139.922 116.234 139.624 116.979C139.488 117.316 139.408 117.673 139.267 118.008C139.143 118.353 138.902 118.643 138.585 118.826C138.422 118.917 138.292 119.056 138.212 119.225C138.133 119.394 138.108 119.583 138.141 119.767C138.221 120.141 138.383 120.492 138.615 120.796C139.001 121.4 139.437 121.97 139.92 122.499C140.27 122.817 140.57 123.186 140.811 123.593C140.959 123.895 141.022 124.23 141.152 124.537C141.224 124.68 141.279 124.83 141.318 124.985C141.334 125.097 141.334 125.212 141.318 125.324C141.099 127.02 139.847 128.401 139.378 130.047C139.348 130.127 139.337 130.213 139.345 130.298C139.385 130.451 139.483 130.582 139.619 130.663C140.53 131.353 141.644 131.71 142.736 132.055C142.923 131.477 143.065 130.886 143.16 130.286Z" fill="#FBBEBE"/>
<path opacity="0.7" d="M143.85 129.858C143.887 129.875 143.917 129.903 143.938 129.939C143.953 129.983 143.953 130.031 143.938 130.075C143.687 130.83 143.357 131.557 142.954 132.243C142.146 131.799 141.355 131.322 140.582 130.812C140.388 130.705 140.225 130.55 140.108 130.361C138.971 128.16 143.094 129.42 143.85 129.858Z" fill="#3F3D56"/>
<path opacity="0.1" d="M139.307 130.928C139.041 131.285 138.733 131.607 138.469 131.967C138.032 132.635 137.644 133.334 137.31 134.06C136.823 134.991 136.233 135.866 135.553 136.666C134.868 137.474 134.047 138.299 133.975 139.356C133.981 139.507 133.948 139.657 133.879 139.791C133.785 139.887 133.681 139.971 133.568 140.043C133.468 140.136 133.41 140.31 133.51 140.403C133.116 140.443 132.956 140.906 132.88 141.306L132.707 142.199C132.651 142.431 132.623 142.669 132.622 142.908C132.646 143.233 132.724 143.551 132.853 143.849C133.265 144.948 133.802 145.996 134.454 146.972C134.768 147.437 135.129 147.905 135.643 148.127C136.127 148.291 136.643 148.34 137.149 148.27C137.872 148.225 138.715 148.106 139.077 147.475C139.305 147.075 139.27 146.557 139.521 146.167C139.667 145.98 139.826 145.804 139.998 145.641C140.267 145.294 140.468 144.899 140.587 144.476C141.25 142.58 141.78 140.639 142.173 138.669C142.278 138.003 142.454 137.35 142.698 136.722C142.973 136.162 143.297 135.628 143.664 135.124C144.309 134.145 144.417 133.3 144.851 132.216C143.867 131.987 143.413 131.333 142.577 130.779C141.787 130.256 140.62 129.144 139.787 128.741C139.528 129.428 139.759 130.316 139.307 130.928Z" fill="black"/>
<path opacity="0.1" d="M138.72 130.392C138.454 130.749 138.146 131.073 137.882 131.431C137.444 132.099 137.058 132.8 136.725 133.527C136.235 134.457 135.646 135.331 134.968 136.133C134.281 136.941 133.463 137.766 133.387 138.823C133.394 138.974 133.361 139.124 133.292 139.258C133.214 139.371 133.081 139.426 132.981 139.509C132.88 139.592 132.823 139.776 132.923 139.869C132.532 139.909 132.368 140.372 132.293 140.77L132.12 141.663C132.066 141.897 132.037 142.135 132.035 142.375C132.059 142.699 132.137 143.017 132.266 143.316C132.681 144.412 133.221 145.456 133.874 146.428C134.188 146.894 134.549 147.359 135.064 147.583C135.548 147.746 136.063 147.795 136.57 147.727C137.292 147.679 138.138 147.563 138.497 146.931C138.728 146.529 138.69 146.013 138.941 145.623C139.087 145.435 139.246 145.259 139.418 145.095C139.688 144.749 139.888 144.355 140.008 143.932C140.67 142.036 141.201 140.096 141.596 138.126C141.698 137.459 141.874 136.806 142.118 136.178C142.394 135.618 142.717 135.083 143.084 134.578C143.729 133.602 143.692 133.021 144.138 131.936C143.155 131.71 142.836 130.789 141.998 130.233C141.207 129.712 140.04 128.598 139.207 128.198C138.929 128.895 139.159 129.783 138.72 130.392Z" fill="black"/>
<path opacity="0.7" d="M139.042 130.658C138.776 131.015 138.467 131.34 138.203 131.697C137.766 132.366 137.378 133.067 137.044 133.793C136.557 134.725 135.967 135.599 135.287 136.4C134.602 137.207 133.781 138.032 133.709 139.089C133.715 139.24 133.682 139.39 133.613 139.524C133.52 139.62 133.415 139.704 133.302 139.776C133.202 139.869 133.141 140.043 133.242 140.136C132.85 140.176 132.687 140.639 132.612 141.039L132.439 141.932C132.385 142.165 132.357 142.403 132.356 142.642C132.38 142.966 132.458 143.284 132.587 143.583C133.004 144.682 133.546 145.73 134.203 146.705C134.517 147.17 134.878 147.638 135.393 147.86C135.876 148.025 136.392 148.074 136.898 148.003C137.624 147.955 138.467 147.84 138.828 147.208C139.057 146.806 139.021 146.29 139.272 145.9C139.419 145.713 139.578 145.538 139.749 145.374C140.018 145.027 140.218 144.631 140.339 144.209C141.001 142.313 141.531 140.372 141.925 138.402C142.029 137.736 142.204 137.083 142.447 136.455C142.724 135.896 143.048 135.361 143.416 134.857C144.06 133.878 144.61 132.839 145.057 131.755C144.081 131.507 143.158 131.086 142.329 130.512C141.539 129.989 140.372 128.874 139.538 128.474C139.262 129.161 139.493 130.049 139.042 130.658Z" fill="#F86D70"/>
<path opacity="0.7" d="M141.571 131.982C141.865 131.982 142.103 131.743 142.103 131.448C142.103 131.154 141.865 130.915 141.571 130.915C141.278 130.915 141.039 131.154 141.039 131.448C141.039 131.743 141.278 131.982 141.571 131.982Z" fill="#3F3D56"/>
<path opacity="0.7" d="M139.905 134.586C140.199 134.586 140.437 134.347 140.437 134.052C140.437 133.758 140.199 133.519 139.905 133.519C139.611 133.519 139.373 133.758 139.373 134.052C139.373 134.347 139.611 134.586 139.905 134.586Z" fill="#3F3D56"/>
<path opacity="0.7" d="M138.173 137.257C138.467 137.257 138.705 137.019 138.705 136.724C138.705 136.429 138.467 136.191 138.173 136.191C137.879 136.191 137.641 136.429 137.641 136.724C137.641 137.019 137.879 137.257 138.173 137.257Z" fill="#3F3D56"/>
<path opacity="0.7" d="M165.294 148.698H160.391C160.402 148.43 160.329 148.165 160.18 147.943C160.18 147.958 160.18 147.973 160.18 147.988C160.156 148.221 160.161 148.456 160.195 148.688H154.041C154.046 147.977 154.122 147.269 154.267 146.574C154.47 145.454 154.585 144.32 154.611 143.183C154.641 141.779 154.538 140.375 154.531 138.971C154.524 137.579 154.613 136.189 154.797 134.81C154.965 133.552 155.213 132.256 155.008 130.993C154.777 129.581 154.578 128.152 154.4 126.733C154.4 126.683 154.388 126.633 154.38 126.58C154.353 126.317 154.3 126.058 154.222 125.805C154.149 125.591 154.046 125.39 153.954 125.184C153.788 124.826 153.648 124.458 153.532 124.082C153.321 123.383 153.185 122.663 153.128 121.935C153.093 121.52 152.523 121.148 152.506 120.73C152.504 120.722 152.504 120.713 152.506 120.705C153.321 120.539 154.764 120.335 155.555 120.62C156.345 120.904 156.922 121.598 157.71 121.86C158.184 121.983 158.672 122.043 159.161 122.039C159.48 122.047 159.796 122.098 160.102 122.19C160.265 122.228 160.407 122.329 160.496 122.471C160.506 122.489 160.513 122.509 160.516 122.529C160.538 122.648 160.519 122.771 160.461 122.877C160.403 122.983 160.311 123.067 160.2 123.113C160.01 123.186 159.805 123.211 159.603 123.186L159.43 123.168C160.194 123.728 160.939 124.316 161.663 124.929L161.899 125.131C162.18 125.346 162.414 125.617 162.587 125.926C162.736 126.301 162.8 126.705 162.775 127.108C162.775 127.576 162.775 128.047 162.775 128.515C162.775 129.418 163.229 130.248 163.387 131.139C163.585 132.261 163.683 133.403 163.776 134.533C163.829 135.195 163.882 135.856 163.907 136.518C163.959 137.791 164.18 139.059 164.2 140.335C164.2 140.727 164.2 141.12 164.235 141.512C164.271 141.905 164.336 142.267 164.404 142.652C164.552 143.472 164.7 144.295 164.85 145.115C164.895 145.329 164.919 145.546 164.923 145.764C164.873 146.073 164.865 146.387 164.898 146.697C164.938 146.829 164.988 146.958 165.049 147.082C165.243 147.598 165.326 148.148 165.294 148.698Z" fill="#F86D70"/>
<path opacity="0.7" d="M148.001 104.963C151.974 104.963 155.196 103.707 155.196 102.158C155.196 100.608 151.974 99.3523 148.001 99.3523C144.027 99.3523 140.806 100.608 140.806 102.158C140.806 103.707 144.027 104.963 148.001 104.963Z" fill="#3F3D56"/>
<path opacity="0.7" d="M155.098 106.674C155.084 106.42 155.024 106.17 154.922 105.937C154.867 105.811 154.796 105.693 154.711 105.584C153.808 104.417 151.672 104.845 151.672 104.845C151.505 104.778 151.333 104.723 151.158 104.681C150.85 104.596 150.529 104.572 150.212 104.613C149.895 104.654 149.59 104.757 149.313 104.918C148.904 105.168 148.572 105.527 148.352 105.954C148.292 106.113 148.242 106.275 148.202 106.44C148.167 106.578 148.14 106.719 148.121 106.86C147.87 108.767 149.291 109.927 150.194 110.463C150.533 110.662 150.912 110.781 151.304 110.81C151.696 110.839 152.089 110.778 152.453 110.631C153.131 110.368 153.728 109.932 154.187 109.367C154.645 108.801 154.948 108.125 155.065 107.406C155.084 107.268 155.094 107.13 155.095 106.991C155.104 106.885 155.105 106.779 155.098 106.674ZM154.154 107.451C154.061 108.044 153.817 108.603 153.446 109.074C153.074 109.545 152.588 109.911 152.034 110.138C151.736 110.261 151.414 110.313 151.093 110.288C150.773 110.264 150.462 110.164 150.187 109.997C149.341 109.494 147.946 108.286 148.681 106.244C148.681 106.244 149.434 104.535 151.379 105.318C151.389 105.318 154.501 104.679 154.154 107.451Z" fill="#F86D70"/>
<path opacity="0.7" d="M151.389 105.32C151.389 105.32 154.501 104.679 154.149 107.451C154.056 108.044 153.812 108.603 153.441 109.074C153.069 109.545 152.583 109.911 152.029 110.138C151.779 110.243 151.511 110.297 151.241 110.297C150.867 110.296 150.501 110.193 150.182 110C149.336 109.497 147.94 108.286 148.676 106.243C148.691 106.243 149.451 104.54 151.389 105.32Z" fill="#3F3D56"/>
<path opacity="0.1" d="M151.389 105.32C151.389 105.32 154.501 104.679 154.149 107.451C154.056 108.044 153.812 108.603 153.441 109.074C153.069 109.545 152.583 109.911 152.029 110.138C151.779 110.243 151.511 110.297 151.241 110.297C150.867 110.296 150.501 110.193 150.182 110C149.336 109.497 147.94 108.286 148.676 106.243C148.691 106.243 149.451 104.54 151.389 105.32Z" fill="url(#paint3_radial)"/>
<path opacity="0.7" d="M147.28 106.855C147.261 106.714 147.234 106.573 147.2 106.435C147.16 106.27 147.11 106.108 147.049 105.949C146.808 105.481 146.432 105.097 145.97 104.847C145.535 104.624 145.041 104.544 144.557 104.618C144.273 104.657 143.995 104.732 143.729 104.84C143.729 104.84 141.594 104.412 140.69 105.579C140.606 105.688 140.535 105.806 140.479 105.932C140.377 106.165 140.318 106.415 140.304 106.669C140.296 106.772 140.296 106.875 140.304 106.978C140.307 107.406 140.392 107.828 140.555 108.224V108.241C140.761 108.768 141.073 109.247 141.471 109.648C141.621 109.803 141.784 109.946 141.957 110.075C142.259 110.3 142.588 110.485 142.936 110.626C143.3 110.773 143.693 110.835 144.085 110.806C144.477 110.776 144.856 110.657 145.195 110.458C146.111 109.922 147.531 108.762 147.28 106.855ZM145.212 109.997C144.937 110.164 144.626 110.264 144.306 110.288C143.985 110.313 143.663 110.261 143.365 110.138C142.811 109.911 142.324 109.545 141.952 109.074C141.58 108.603 141.336 108.044 141.242 107.451C140.898 104.684 144.003 105.318 144.003 105.318C145.94 104.535 146.701 106.244 146.701 106.244C147.453 108.287 146.058 109.484 145.212 109.997Z" fill="#F86D70"/>
<path opacity="0.7" d="M144.01 105.32C144.01 105.32 140.898 104.679 141.25 107.451C141.343 108.044 141.588 108.603 141.96 109.074C142.332 109.544 142.818 109.911 143.373 110.138C143.622 110.243 143.89 110.297 144.161 110.297C144.534 110.296 144.9 110.193 145.22 110C146.066 109.497 147.461 108.286 146.726 106.243C146.708 106.243 145.948 104.54 144.01 105.32Z" fill="#3F3D56"/>
<path opacity="0.1" d="M144.01 105.32C144.01 105.32 140.898 104.679 141.25 107.451C141.343 108.044 141.588 108.603 141.96 109.074C142.332 109.544 142.818 109.911 143.373 110.138C143.622 110.243 143.89 110.297 144.161 110.297C144.534 110.296 144.9 110.193 145.22 110C146.066 109.497 147.461 108.286 146.726 106.243C146.708 106.243 145.948 104.54 144.01 105.32Z" fill="url(#paint4_radial)"/>
<path opacity="0.7" d="M148.435 106.437H146.974V106.855H148.435V106.437Z" fill="#F86D70"/>
</g>
<path d="M88.9148 170.664C88.325 169.517 87.02 168.948 85.8029 168.501C84.5857 168.053 83.2933 167.623 82.0134 167.243C83.5693 165.844 84.8015 164.11 85.9208 162.342C86.5608 161.335 87.1756 160.281 87.4818 159.129C87.788 157.976 87.7578 156.686 87.1505 155.654C86.4303 154.429 85.0048 153.745 83.5844 153.573C82.164 153.402 80.7335 153.667 79.3331 153.946C78.3293 154.147 77.3255 154.357 76.3216 154.575C76.9088 154.29 77.481 153.975 78.0357 153.631C80.1036 152.346 81.9205 150.7 83.6446 148.984C84.1892 148.441 84.7664 147.802 84.7514 147.035C84.7363 146.325 84.1867 145.704 83.5242 145.437C82.8436 145.204 82.1102 145.175 81.4136 145.354C80.4703 145.555 79.5778 145.947 78.7904 146.506C78.003 147.064 77.3372 147.777 76.8336 148.602C76.4873 149.181 76.2162 149.822 75.7369 150.3C75.1672 150.866 74.2663 151.09 73.6338 150.512C73.4146 150.266 73.2549 149.974 73.1671 149.656L73.1997 149.613C74.4545 147.784 74.5473 145.304 73.7192 143.243C73.0893 141.671 72.0001 140.345 70.9059 139.031C71.8855 138.34 72.9533 137.783 74.0806 137.376C74.392 137.286 74.6876 137.147 74.9564 136.966C75.491 136.556 75.6541 135.821 75.6641 135.149C75.6741 134.477 75.5688 133.816 75.7093 133.169C76.3834 133.381 77.0858 133.489 77.7922 133.489C79.1194 133.492 80.4189 133.108 81.5326 132.384C82.6464 131.661 83.5266 130.628 84.0662 129.413C85.3085 129.091 86.5206 128.567 87.4165 127.652C88.5208 126.532 89.2009 124.358 88.0214 123.047C87.6324 122.617 87.0426 122.429 86.5658 122.119C85.8129 121.616 85.311 120.999 84.784 120.277C82.4526 117.13 79.1123 116.549 75.3504 116.969C73.6589 117.158 71.9625 117.472 70.4065 118.162C69.2169 118.729 68.0855 119.411 67.0286 120.199C66.8579 120.32 66.6848 120.451 66.5267 120.569C66.223 119.633 65.8165 118.712 65.5755 117.973C65.4508 117.67 65.3984 117.341 65.4225 117.014C65.5028 116.463 65.9746 116.063 66.4263 115.716L72.8032 110.704C73.4737 110.146 74.1897 109.645 74.9439 109.207C77.1423 108.015 79.9229 107.871 81.7649 106.188C82.2954 105.698 82.7174 105.103 83.0036 104.439C83.2898 103.775 83.4338 103.059 83.4263 102.336C83.4062 101.297 82.9244 100.132 81.9205 99.8454C80.8665 99.5435 79.8376 100.321 79.0245 101.048C76.3568 103.431 73.6966 105.843 70.7202 107.841C67.9044 109.72 64.8026 111.223 62.298 113.492C61.8407 113.877 61.4476 114.333 61.1336 114.843C60.8256 115.456 60.6132 116.113 60.5037 116.79L59.9842 119.241C59.5651 121.213 59.2313 123.5 60.4234 125.083C60.3484 125.232 60.2862 125.388 60.2376 125.548C60.0569 126.16 60.3882 126.806 60.2376 127.34C60.072 127.938 59.161 128.598 58.7545 129.073C58.1923 129.727 57.6502 130.404 57.1333 131.086C55.1381 133.8 53.4236 136.711 52.0162 139.774C49.8605 144.368 48.2518 149.188 46.6306 153.996C46.347 154.847 46.0584 155.715 46.0509 156.613C46.0538 157.427 46.2908 158.224 46.7335 158.907C46.3019 161.456 45.2127 163.891 45.1751 166.5L44.7811 166.679C44.6104 169.102 45.7849 171.517 46.7887 173.724C47.3684 174.982 48.0661 176.338 49.356 176.854C50.0161 177.105 50.7464 177.12 51.4566 177.105C52.2822 177.105 53.0426 177.12 53.793 177.138H53.6976C52.7942 177.289 51.7903 177.641 51.439 178.479C51.2929 178.934 51.2576 179.417 51.3361 179.888C51.6272 183.194 51.9175 186.5 52.2069 189.806C52.2697 190.538 52.36 191.328 52.8594 191.871C53.3162 192.374 54.0214 192.546 54.6914 192.651C55.9473 192.844 57.2244 192.855 58.4834 192.684C59.0127 192.647 59.5236 192.473 59.9666 192.181C60.3857 191.861 60.6467 191.283 60.4409 190.797C60.1498 190.105 59.1711 190.007 58.6842 189.436C58.0468 188.699 58.4709 187.572 58.9151 186.706C58.9828 186.573 59.0632 186.432 59.146 186.288C59.5881 186.953 60.1145 187.557 60.712 188.085C61.2013 188.515 61.9015 188.819 62.4687 188.518C63.859 187.791 65.2577 187.078 66.6647 186.379L66.991 186.424C69.7198 186.799 72.474 186.954 75.2274 186.89C75.7504 186.91 76.2716 186.817 76.7558 186.618C77.2251 186.386 77.6015 185.893 77.5287 185.38C77.4434 184.759 76.7884 184.394 76.1961 184.175C75.0794 183.767 73.9094 183.524 72.7229 183.453C74.2604 182.718 75.8021 181.987 77.3481 181.259C78.8915 180.529 80.4499 179.795 82.1163 179.377C84.2519 178.841 86.754 178.71 88.1393 177.005C88.97 175.973 89.1733 174.589 89.2611 173.271C89.3088 172.385 89.3213 171.464 88.9148 170.664ZM67.2294 156.766C66.4765 156.965 65.6257 157.174 64.7649 157.43C64.6846 156.771 64.5592 156.115 64.4789 155.458C64.4352 155.256 64.4536 155.045 64.5316 154.854C64.6583 154.671 64.8378 154.53 65.046 154.452L67.917 153.043C67.9186 152.779 67.8664 152.519 67.7637 152.276C67.661 152.034 67.5099 151.815 67.3197 151.634C67.598 151.738 67.8865 151.812 68.1805 151.855C68.4711 153.117 69.0197 154.306 69.7917 155.345C69.958 155.591 70.189 155.787 70.4592 155.911L70.5044 155.923C69.4102 156.195 68.3185 156.476 67.2294 156.766Z" fill="url(#paint5_linear)"/>
<path d="M69.9724 128.804C68.547 129.224 66.9609 128.877 65.6936 128.117C65.4422 127.939 65.1608 127.808 64.8629 127.73C64.3434 127.637 63.8289 127.934 63.4525 128.306C62.2303 129.524 62.0898 131.536 62.7222 133.142C63.3546 134.747 64.6195 136.017 65.9495 137.117C67.0226 138.003 68.1573 138.812 69.345 139.537C69.6721 138.769 70.1483 138.073 70.7458 137.49C71.3433 136.907 72.0504 136.45 72.8258 136.143C74.2212 135.602 75.2426 134.15 76.0431 132.872C76.6354 131.934 77.1649 131.977 76.6304 131.003C76.0958 130.029 75.2626 129.262 74.5148 128.439C74.0761 127.978 73.6937 127.466 73.3754 126.915C73.0165 126.273 73.0969 125.855 72.5473 126.364C72.1834 126.703 72.0253 127.43 71.6187 127.828C71.1569 128.282 70.592 128.617 69.9724 128.804Z" fill="#FABDBD"/>
<path d="M65.5983 118.848C65.4776 118.548 65.427 118.223 65.4502 117.9C65.528 117.356 65.9898 116.961 66.4189 116.619L72.6477 111.67C73.3027 111.121 74.0019 110.627 74.7382 110.194C76.8864 109.016 79.6018 108.875 81.4012 107.21C81.9206 106.724 82.333 106.135 82.6122 105.48C82.8914 104.826 83.0311 104.12 83.0224 103.408C83.0023 102.384 82.5205 101.234 81.5493 100.947C80.5203 100.651 79.5165 101.42 78.7209 102.137C76.116 104.487 73.5186 106.87 70.6099 108.832C67.8494 110.689 64.8379 112.171 62.386 114.413C61.939 114.793 61.5552 115.242 61.2491 115.744C60.9483 116.35 60.741 116.999 60.6343 117.668L60.1324 120.086C59.7032 122.124 59.3569 124.502 60.7271 126.067C60.9268 126.317 61.1788 126.521 61.4654 126.663C61.7521 126.805 62.0663 126.882 62.386 126.889C62.8397 126.837 63.277 126.688 63.6684 126.452C64.6873 125.926 66.5218 125.423 66.833 124.165C67.2245 122.557 66.0776 120.328 65.5983 118.848Z" fill="#FABDBD"/>
<path d="M75.5336 150.748C76.0004 150.275 76.2664 149.644 76.6052 149.072C77.0933 148.26 77.7417 147.557 78.5108 147.005C79.2798 146.454 80.1532 146.066 81.0773 145.865C81.7574 145.688 82.4744 145.718 83.1377 145.95C83.4664 146.071 83.7539 146.283 83.9664 146.562C84.1789 146.841 84.3075 147.175 84.3372 147.525C84.3498 148.28 83.7877 148.914 83.2531 149.45C81.5717 151.143 79.7974 152.768 77.7797 154.036C75.762 155.304 73.4707 156.21 71.0916 156.369C70.8521 156.398 70.6091 156.376 70.3789 156.303C70.1148 156.18 69.8893 155.987 69.7264 155.745C68.4716 154.119 68.0249 152.016 67.6836 149.986C67.8066 150.718 71.9072 149.012 72.3715 149.231C73.0491 149.55 72.9839 150.512 73.4782 150.969C74.0956 151.528 74.9765 151.309 75.5336 150.748Z" fill="#FABDBD"/>
<path d="M45.6645 166.79C45.6417 167.045 45.6922 167.302 45.8101 167.529C46.0886 167.97 46.721 167.975 47.2355 167.899C48.4243 167.696 49.5981 167.413 50.7489 167.051L61.2014 164.032C61.3669 163.999 61.5214 163.925 61.6506 163.816C61.7584 163.683 61.8293 163.524 61.8564 163.356C62.2225 161.845 62.3008 160.279 62.0873 158.739C62.0754 158.518 62.0024 158.304 61.8765 158.122C61.6408 157.905 61.3305 157.788 61.0107 157.795C59.3731 157.629 57.7277 157.554 56.0818 157.569C55.0141 157.615 53.9444 157.593 52.8796 157.501C51.5043 157.335 49.9233 156.545 48.5455 156.666C47.3484 156.769 47.3961 157.705 47.2732 158.696C46.9293 161.428 45.6921 164.007 45.6645 166.79Z" fill="#FABDBD"/>
<path d="M79.0445 154.356C80.4123 154.079 81.8051 153.815 83.1979 153.986C84.5907 154.157 85.976 154.831 86.6787 156.042C87.271 157.061 87.3036 158.331 87.0025 159.471C86.7013 160.611 86.1015 161.645 85.4791 162.643C84.2243 164.631 82.8466 166.573 81.0146 168.033C80.1262 168.742 79.1424 169.328 78.2866 170.078C76.4622 171.676 75.3329 173.907 74.2487 176.079C73.2273 178.124 72.1959 180.202 71.7743 182.449C71.7695 182.536 71.7475 182.621 71.7096 182.699C71.6717 182.777 71.6186 182.847 71.5534 182.904C71.4117 182.97 71.2508 182.981 71.1017 182.935L66.0825 182.006C65.8548 181.992 65.638 181.904 65.4651 181.755C65.2518 181.503 65.307 181.141 65.3798 180.824C66.467 176.135 68.5025 171.72 71.3602 167.851C70.0313 169.109 68.4225 170.031 66.6671 170.541C64.9117 171.051 63.0603 171.134 61.2666 170.783C60.5665 170.68 59.9059 170.393 59.3518 169.952C58.2325 168.946 58.2852 167.185 58.5336 165.703C58.7576 164.379 59.0677 163.071 59.4622 161.788C60.4209 158.711 64.4713 157.878 67.2244 157.123C71.1343 156.077 75.0744 155.154 79.0445 154.356Z" fill="#3F3D56"/>
<path opacity="0.1" d="M75.3356 165.202C74.6404 165.529 73.9302 165.884 73.4258 166.46C74.3292 165.418 76.9041 164.933 78.1689 164.447C79.7324 163.861 81.4314 163.267 82.7665 162.228C80.2206 163.037 77.7371 164.031 75.3356 165.202Z" fill="black"/>
<path d="M59.0909 186.721C58.6542 187.574 58.2426 188.686 58.865 189.416C59.3468 189.979 60.303 190.075 60.5891 190.759C60.7873 191.237 60.5339 191.808 60.1248 192.125C59.6935 192.416 59.1947 192.589 58.6768 192.629C57.447 192.798 56.1992 192.787 54.9726 192.596C54.3176 192.493 53.63 192.317 53.1833 191.826C52.6939 191.29 52.6086 190.51 52.5458 189.788C52.2631 186.526 51.9804 183.263 51.6976 179.999C51.6188 179.533 51.6523 179.055 51.7955 178.605C52.1343 177.774 53.113 177.43 53.9964 177.281C54.9871 177.115 55.9946 177.075 56.9954 177.161C57.6704 177.218 58.3832 177.352 58.8826 177.81C59.4447 178.313 59.6229 179.123 59.7684 179.873C59.9968 181.035 60.6368 182.64 60.5013 183.828C60.3908 184.779 59.5175 185.863 59.0909 186.721Z" fill="#F28594"/>
<path d="M70.334 183.556C72.2398 183.305 74.1779 183.524 75.9806 184.193C76.5603 184.409 77.1977 184.766 77.283 185.38C77.3533 185.883 76.9844 186.387 76.5302 186.603C76.0535 186.801 75.5398 186.892 75.0244 186.872C72.3312 186.945 69.6364 186.801 66.9661 186.442C66.2785 186.349 65.5658 186.231 65.0036 185.823C64.4415 185.415 64.0901 184.633 64.3888 184.006C64.71 183.337 65.5883 183.126 66.01 182.517C66.3161 182.077 66.3914 181.433 66.8707 181.201C67.2095 181.038 67.6236 181.161 67.9649 181.284C68.4668 181.463 69.694 181.641 70.0479 182.064C70.2085 182.243 70.3465 183.554 70.334 183.556Z" fill="#F28594"/>
<path d="M77.5413 134.158C81.2336 134.158 84.2268 131.157 84.2268 127.455C84.2268 123.754 81.2336 120.753 77.5413 120.753C73.8489 120.753 70.8557 123.754 70.8557 127.455C70.8557 131.157 73.8489 134.158 77.5413 134.158Z" fill="#FABDBD"/>
<path d="M61.6758 124.499C62.7524 123.712 64.1076 123.443 65.4176 123.194C65.8668 123.108 66.3637 123.03 66.7602 123.262C67.0428 123.464 67.2656 123.74 67.4052 124.059C67.8137 124.713 68.1161 125.428 68.3011 126.178C68.4417 126.932 68.3011 127.783 67.7766 128.334C67.3801 128.746 66.8104 128.95 66.4039 129.34C65.8417 129.896 65.6786 130.762 65.8041 131.542C65.9664 132.318 66.2674 133.059 66.6925 133.728C67.676 135.46 68.7954 137.11 70.0403 138.664C71.3377 140.284 72.8008 141.839 73.5537 143.769C74.3618 145.804 74.279 148.252 73.0518 150.059C71.8246 151.865 69.3526 152.826 67.3098 152.057C67.4959 152.236 67.6436 152.452 67.7441 152.691C67.8446 152.93 67.8958 153.186 67.8946 153.445L65.0939 154.859C64.8903 154.938 64.7152 155.076 64.5919 155.257C64.5162 155.446 64.4987 155.654 64.5418 155.853C64.6798 156.995 64.9609 158.135 64.8831 159.285C64.8053 160.435 64.2808 161.645 63.2443 162.143C62.2881 162.603 61.1613 162.359 60.1224 162.143C57.6937 161.652 55.2241 161.393 52.7467 161.371C51.517 161.371 50.2371 161.401 49.1078 160.923C48.3459 160.586 47.6972 160.036 47.2391 159.339C46.7811 158.642 46.5333 157.827 46.5254 156.993C46.5254 156.107 46.814 155.252 47.0926 154.411C48.6661 149.664 50.2446 144.904 52.3627 140.37C53.7353 137.349 55.4103 134.475 57.3618 131.793C57.8637 131.112 58.3916 130.447 58.9454 129.798C59.3394 129.333 60.2303 128.678 60.3909 128.087C60.5364 127.556 60.2127 126.922 60.3909 126.326C60.6131 125.595 61.0635 124.955 61.6758 124.499Z" fill="#F28594"/>
<path d="M45.2805 166.936C48.2117 165.58 51.1479 164.221 54.1971 163.162C56.4557 162.384 58.9478 161.78 61.1537 162.659C61.8112 162.91 62.4085 163.308 63.0509 163.62C65.1866 164.659 67.6284 164.81 69.99 165.074C75.2429 165.662 80.4052 166.887 85.3637 168.722C86.5533 169.162 87.8282 169.728 88.4029 170.858C88.7994 171.638 88.7893 172.556 88.7316 173.429C88.6438 174.73 88.4455 176.099 87.6349 177.115C86.2923 178.801 83.8479 178.927 81.7625 179.458C80.1438 179.87 78.623 180.595 77.1147 181.314C72.2335 183.647 67.3524 185.979 62.5591 188.51C61.9944 188.809 61.3043 188.51 60.835 188.085C59.3694 186.786 58.3906 185 57.8235 183.123C57.2563 181.246 57.0932 179.271 57.058 177.314C55.1859 177.314 53.6626 177.228 51.7879 177.233C51.0952 177.233 50.38 177.233 49.7376 176.982C48.4828 176.479 47.7951 175.13 47.228 173.892C46.2542 171.701 45.1124 169.316 45.2805 166.936Z" fill="#3F3D56"/>
<path opacity="0.1" d="M79.3383 173.907C78.0158 173.263 76.4874 173.246 75.0168 173.261C74.1208 173.243 73.225 173.311 72.3416 173.462C70.9613 173.729 69.7065 174.396 68.4241 174.936C65.3006 176.249 61.9431 176.91 58.5564 176.879" fill="black"/>
<path d="M86.9398 128.401C85.9862 129.375 84.6661 129.911 83.3386 130.213C82.011 130.515 80.6458 130.638 79.3232 130.933C77.6845 131.295 75.8876 132.165 75.5187 133.808C75.3731 134.455 75.4785 135.129 75.4685 135.793C75.4584 136.458 75.3003 137.18 74.7783 137.587C74.5158 137.765 74.227 137.901 73.9226 137.99C68.5696 139.935 64.7274 145.47 64.7726 151.178C63.9333 150.69 63.2148 150.017 62.6708 149.211C62.1268 148.405 61.7712 147.487 61.6306 146.524C61.6306 148.3 60.1248 150.119 60.9655 151.682C60.0184 151.066 59.2098 150.259 58.5914 149.312C57.9729 148.366 57.5582 147.3 57.3737 146.184C57.1893 145.068 57.2391 143.925 57.5201 142.829C57.8011 141.733 58.307 140.708 59.0055 139.819C59.6806 138.958 60.5113 138.246 61.2391 137.424C62.2344 136.267 62.9814 134.917 63.4335 133.459C63.8856 132 64.033 130.463 63.8666 128.945C63.7211 127.652 63.3446 126.343 63.6157 125.075C64.0097 123.314 65.5531 122.086 67.0212 121.05C68.0513 120.271 69.1559 119.597 70.3188 119.037C71.8396 118.358 73.4959 118.031 75.1472 117.857C78.8213 117.442 82.0838 118.016 84.36 121.128C84.882 121.842 85.3638 122.459 86.1016 122.947C86.5659 123.251 87.1431 123.45 87.5221 123.863C88.684 125.148 88.0265 127.297 86.9398 128.401Z" fill="#3F3D56"/>
<path d="M35.4857 187.109C39.1004 187.109 42.0307 186.544 42.0307 185.848C42.0307 185.152 39.1004 184.588 35.4857 184.588C31.871 184.588 28.9407 185.152 28.9407 185.848C28.9407 186.544 31.871 187.109 35.4857 187.109Z" fill="#F28594"/>
<path d="M35.3777 186.311C35.799 186.311 36.1406 185.864 36.1406 185.312C36.1406 184.761 35.799 184.313 35.3777 184.313C34.9563 184.313 34.6147 184.761 34.6147 185.312C34.6147 185.864 34.9563 186.311 35.3777 186.311Z" fill="#3F3D56"/>
<path d="M35.3777 185.088C35.799 185.088 36.1406 184.641 36.1406 184.089C36.1406 183.538 35.799 183.091 35.3777 183.091C34.9563 183.091 34.6147 183.538 34.6147 184.089C34.6147 184.641 34.9563 185.088 35.3777 185.088Z" fill="#3F3D56"/>
<path d="M35.3777 183.866C35.799 183.866 36.1406 183.418 36.1406 182.867C36.1406 182.315 35.799 181.868 35.3777 181.868C34.9563 181.868 34.6147 182.315 34.6147 182.867C34.6147 183.418 34.9563 183.866 35.3777 183.866Z" fill="#3F3D56"/>
<path d="M35.3777 182.645C35.799 182.645 36.1406 182.198 36.1406 181.647C36.1406 181.095 35.799 180.648 35.3777 180.648C34.9563 180.648 34.6147 181.095 34.6147 181.647C34.6147 182.198 34.9563 182.645 35.3777 182.645Z" fill="#3F3D56"/>
<path d="M35.3777 181.423C35.799 181.423 36.1406 180.976 36.1406 180.424C36.1406 179.872 35.799 179.425 35.3777 179.425C34.9563 179.425 34.6147 179.872 34.6147 180.424C34.6147 180.976 34.9563 181.423 35.3777 181.423Z" fill="#3F3D56"/>
<path d="M35.3777 180.2C35.799 180.2 36.1406 179.753 36.1406 179.201C36.1406 178.649 35.799 178.202 35.3777 178.202C34.9563 178.202 34.6147 178.649 34.6147 179.201C34.6147 179.753 34.9563 180.2 35.3777 180.2Z" fill="#3F3D56"/>
<path d="M35.3777 178.977C35.799 178.977 36.1406 178.53 36.1406 177.978C36.1406 177.427 35.799 176.979 35.3777 176.979C34.9563 176.979 34.6147 177.427 34.6147 177.978C34.6147 178.53 34.9563 178.977 35.3777 178.977Z" fill="#3F3D56"/>
<path d="M38.2286 169.613C38.3331 169.482 38.4279 169.344 38.5122 169.2L36.5045 168.87L38.6678 168.886C38.8751 168.432 38.9883 167.942 39.0004 167.444C39.0125 166.945 38.9232 166.45 38.738 165.987L35.8344 167.497L38.5122 165.522C38.2627 165.084 37.9258 164.703 37.5225 164.402C37.1192 164.101 36.6583 163.887 36.1686 163.774C35.6789 163.66 35.1711 163.648 34.6769 163.741C34.1827 163.833 33.7128 164.026 33.2967 164.309C32.8806 164.592 32.5273 164.958 32.259 165.384C31.9906 165.81 31.8129 166.287 31.7371 166.785C31.6612 167.284 31.6889 167.792 31.8183 168.279C31.9477 168.766 32.1761 169.221 32.4891 169.615C32.3271 169.823 32.1874 170.047 32.0725 170.284L34.6725 171.638L31.9119 170.705C31.717 171.281 31.6686 171.897 31.7712 172.498C31.8737 173.098 32.1239 173.663 32.4992 174.141C32.076 174.681 31.8127 175.329 31.7396 176.012C31.6664 176.694 31.7863 177.384 32.0855 178.001C32.3847 178.618 32.8512 179.139 33.4316 179.503C34.012 179.867 34.6829 180.061 35.3676 180.061C36.0524 180.061 36.7233 179.867 37.3037 179.503C37.8841 179.139 38.3505 178.618 38.6498 178.001C38.949 177.384 39.0689 176.694 38.9957 176.012C38.9226 175.329 38.6593 174.681 38.2361 174.141C38.7425 173.496 39.0178 172.698 39.0178 171.877C39.0178 171.056 38.7425 170.258 38.2361 169.613H38.2286Z" fill="#F28594"/>
<path opacity="0.1" d="M31.7112 171.877C31.7095 172.699 31.9845 173.496 32.4917 174.141C32.0685 174.681 31.8052 175.329 31.7321 176.012C31.6589 176.694 31.7788 177.384 32.078 178.001C32.3772 178.619 32.8437 179.139 33.4241 179.503C34.0045 179.868 34.6754 180.061 35.3601 180.061C36.0449 180.061 36.7158 179.868 37.2962 179.503C37.8766 179.139 38.343 178.619 38.6422 178.001C38.9415 177.384 39.0613 176.694 38.9882 176.012C38.915 175.329 38.6518 174.681 38.2286 174.141C38.718 173.515 31.7112 171.465 31.7112 171.877Z" fill="black"/>
<defs>
<linearGradient id="paint0_linear" x1="143.531" y1="184.346" x2="143.531" y2="28.6089" gradientUnits="userSpaceOnUse">
<stop stop-color="#808080" stop-opacity="0.25"/>
<stop offset="0.54" stop-color="#808080" stop-opacity="0.12"/>
<stop offset="1" stop-color="#808080" stop-opacity="0.1"/>
</linearGradient>
<linearGradient id="paint1_linear" x1="-1363.85" y1="606.219" x2="-1354.81" y2="606.219" gradientUnits="userSpaceOnUse">
<stop stop-color="#808080" stop-opacity="0.25"/>
<stop offset="0.54" stop-color="#808080" stop-opacity="0.12"/>
<stop offset="1" stop-color="#808080" stop-opacity="0.1"/>
</linearGradient>
<linearGradient id="paint2_linear" x1="21236.9" y1="34017.9" x2="21236.9" y2="23240.3" gradientUnits="userSpaceOnUse">
<stop stop-color="#808080" stop-opacity="0.25"/>
<stop offset="0.54" stop-color="#808080" stop-opacity="0.12"/>
<stop offset="1" stop-color="#808080" stop-opacity="0.1"/>
</linearGradient>
<radialGradient id="paint3_radial" cx="0" cy="0" r="1" gradientUnits="userSpaceOnUse" gradientTransform="translate(151.331 107.705) scale(2.7204 2.72729)">
<stop stop-color="white"/>
<stop offset="1"/>
</radialGradient>
<radialGradient id="paint4_radial" cx="0" cy="0" r="1" gradientUnits="userSpaceOnUse" gradientTransform="translate(-24076.2 2636.43) rotate(180) scale(61.9026 56.1616)">
<stop stop-color="white"/>
<stop offset="1"/>
</radialGradient>
<linearGradient id="paint5_linear" x1="8705.25" y1="59823.6" x2="16606.2" y2="59823.6" gradientUnits="userSpaceOnUse">
<stop stop-color="#808080" stop-opacity="0.25"/>
<stop offset="0.54" stop-color="#808080" stop-opacity="0.12"/>
<stop offset="1" stop-color="#808080" stop-opacity="0.1"/>
</linearGradient>
</defs>
</svg>
