<svg width="280" height="38" viewBox="0 0 280 38" fill="none" xmlns="http://www.w3.org/2000/svg">
<rect x="0.5" y="0.5" width="279" height="37" rx="7.5" stroke="url(#paint0_linear)"/>
<path d="M138.053 15.796V14.662H128.995V15.796H132.733C132.313 17.112 130.381 17.938 128.435 18.162L129.079 19.31C130.969 19.072 132.887 18.106 133.531 16.888C134.259 18.078 136.261 19.072 137.969 19.268L138.599 18.12C136.723 17.938 134.777 17.098 134.343 15.796H138.053ZM134.217 25.106V21.228H139.159V20.094H127.889V21.228H132.789V25.106H134.217ZM131.487 13.85H135.547V12.702H131.487V13.85ZM155.216 18.694V17.504H153.368V12.632H151.926V25.106H153.368V18.694H155.216ZM150.092 13.948H144.338V15.124H148.552C148.314 17.742 146.48 20.36 143.61 21.676L144.506 22.768C148.104 20.794 149.994 17.812 150.092 13.948Z" fill="url(#paint1_linear)"/>
<defs>
<linearGradient id="paint0_linear" x1="-7.82311e-07" y1="19" x2="280" y2="19" gradientUnits="userSpaceOnUse">
<stop stop-color="#FFACB7"/>
<stop offset="1" stop-color="#86A1D9"/>
</linearGradient>
<linearGradient id="paint1_linear" x1="119" y1="19" x2="167.5" y2="19" gradientUnits="userSpaceOnUse">
<stop stop-color="#FFACB7"/>
<stop offset="1" stop-color="#86A1D9"/>
</linearGradient>
</defs>
</svg>
